<svg width="408" height="408" viewBox="0 0 408 408" fill="none" xmlns="http://www.w3.org/2000/svg">
<g clip-path="url(#clip0_2980_4599)">
<mask id="mask0_2980_4599" style="mask-type:luminance" maskUnits="userSpaceOnUse" x="36" y="36" width="336" height="336">
<path d="M372 36H36V372H372V36Z" fill="white"/>
</mask>
<g mask="url(#mask0_2980_4599)">
<mask id="mask1_2980_4599" style="mask-type:alpha" maskUnits="userSpaceOnUse" x="20" y="20" width="368" height="368">
<path d="M204 388C305.62 388 388 305.62 388 204C388 102.38 305.62 20 204 20C102.38 20 20 102.38 20 204C20 305.62 102.38 388 204 388Z" fill="url(#paint0_radial_2980_4599)"/>
</mask>
<g mask="url(#mask1_2980_4599)">
<g opacity="0.1">
<path opacity="0.3" d="M53.5842 55.1684C54.4591 55.1684 55.1684 54.4591 55.1684 53.5842C55.1684 52.7093 54.4591 52 53.5842 52C52.7093 52 52 52.7093 52 53.5842C52 54.4591 52.7093 55.1684 53.5842 55.1684Z" fill="#F8F8F8"/>
<path d="M73.505 55.01C74.3362 55.01 75.01 54.3362 75.01 53.505C75.01 52.6738 74.3362 52 73.505 52C72.6738 52 72 52.6738 72 53.505C72 54.3362 72.6738 55.01 73.505 55.01Z" fill="#F8F8F8"/>
<path d="M93.8862 55.2724C94.6518 55.2724 95.2724 54.6518 95.2724 53.8862C95.2724 53.1206 94.6518 52.5 93.8862 52.5C93.1206 52.5 92.5 53.1206 92.5 53.8862C92.5 54.6518 93.1206 55.2724 93.8862 55.2724Z" fill="#F8F8F8"/>
<path d="M113.728 54.9556C114.406 54.9556 114.956 54.4059 114.956 53.7278C114.956 53.0497 114.406 52.5 113.728 52.5C113.05 52.5 112.5 53.0497 112.5 53.7278C112.5 54.4059 113.05 54.9556 113.728 54.9556Z" fill="#F8F8F8"/>
<path d="M133.589 54.6784C134.191 54.6784 134.678 54.1907 134.678 53.5892C134.678 52.9877 134.191 52.5 133.589 52.5C132.988 52.5 132.5 52.9877 132.5 53.5892C132.5 54.1907 132.988 54.6784 133.589 54.6784Z" fill="#F8F8F8"/>
<path d="M153.911 54.822C154.414 54.822 154.822 54.4141 154.822 53.911C154.822 53.4079 154.414 53 153.911 53C153.408 53 153 53.4079 153 53.911C153 54.4141 153.408 54.822 153.911 54.822Z" fill="#F8F8F8"/>
<path d="M173.733 54.4656C174.138 54.4656 174.466 54.1375 174.466 53.7328C174.466 53.3281 174.138 53 173.733 53C173.328 53 173 53.3281 173 53.7328C173 54.1375 173.328 54.4656 173.733 54.4656Z" fill="#F8F8F8"/>
<path d="M193.574 54.1488C193.892 54.1488 194.149 53.8916 194.149 53.5744C194.149 53.2572 193.892 53 193.574 53C193.257 53 193 53.2572 193 53.5744C193 53.8916 193.257 54.1488 193.574 54.1488Z" fill="#F8F8F8"/>
<path d="M213.5 54C213.776 54 214 53.7761 214 53.5C214 53.2239 213.776 53 213.5 53C213.224 53 213 53.2239 213 53.5C213 53.7761 213.224 54 213.5 54Z" fill="#F8F8F8"/>
<path d="M233.5 54C233.776 54 234 53.7761 234 53.5C234 53.2239 233.776 53 233.5 53C233.224 53 233 53.2239 233 53.5C233 53.7761 233.224 54 233.5 54Z" fill="#F8F8F8"/>
<path d="M253.5 54C253.776 54 254 53.7761 254 53.5C254 53.2239 253.776 53 253.5 53C253.224 53 253 53.2239 253 53.5C253 53.7761 253.224 54 253.5 54Z" fill="#F8F8F8"/>
<path d="M273.5 54C273.776 54 274 53.7761 274 53.5C274 53.2239 273.776 53 273.5 53C273.224 53 273 53.2239 273 53.5C273 53.7761 273.224 54 273.5 54Z" fill="#F8F8F8"/>
<path d="M293.5 54C293.776 54 294 53.7761 294 53.5C294 53.2239 293.776 53 293.5 53C293.224 53 293 53.2239 293 53.5C293 53.7761 293.224 54 293.5 54Z" fill="#F8F8F8"/>
<path d="M313.5 54C313.776 54 314 53.7761 314 53.5C314 53.2239 313.776 53 313.5 53C313.224 53 313 53.2239 313 53.5C313 53.7761 313.224 54 313.5 54Z" fill="#F8F8F8"/>
<path d="M333.5 54C333.776 54 334 53.7761 334 53.5C334 53.2239 333.776 53 333.5 53C333.224 53 333 53.2239 333 53.5C333 53.7761 333.224 54 333.5 54Z" fill="#F8F8F8"/>
<path d="M353.5 54C353.776 54 354 53.7761 354 53.5C354 53.2239 353.776 53 353.5 53C353.224 53 353 53.2239 353 53.5C353 53.7761 353.224 54 353.5 54Z" fill="#F8F8F8"/>
<path opacity="0.3" d="M53.5248 75.0496C54.3669 75.0496 55.0496 74.3669 55.0496 73.5248C55.0496 72.6827 54.3669 72 53.5248 72C52.6827 72 52 72.6827 52 73.5248C52 74.3669 52.6827 75.0496 53.5248 75.0496Z" fill="#F8F8F8"/>
<path opacity="0.4" d="M73.9456 75.3912C74.744 75.3912 75.3912 74.744 75.3912 73.9456C75.3912 73.1472 74.744 72.5 73.9456 72.5C73.1472 72.5 72.5 73.1472 72.5 73.9456C72.5 74.744 73.1472 75.3912 73.9456 75.3912Z" fill="#F8F8F8"/>
<path opacity="0.4" d="M93.807 75.114C94.5288 75.114 95.114 74.5288 95.114 73.807C95.114 73.0852 94.5288 72.5 93.807 72.5C93.0852 72.5 92.5 73.0852 92.5 73.807C92.5 74.5288 93.0852 75.114 93.807 75.114Z" fill="#F8F8F8"/>
<path opacity="0.4" d="M113.649 74.7972C114.283 74.7972 114.797 74.283 114.797 73.6486C114.797 73.0142 114.283 72.5 113.649 72.5C113.014 72.5 112.5 73.0142 112.5 73.6486C112.5 74.283 113.014 74.7972 113.649 74.7972Z" fill="#F8F8F8"/>
<path d="M133.99 74.9804C134.537 74.9804 134.98 74.5371 134.98 73.9902C134.98 73.4433 134.537 73 133.99 73C133.443 73 133 73.4433 133 73.9902C133 74.5371 133.443 74.9804 133.99 74.9804Z" fill="#F8F8F8"/>
<path d="M153.812 74.624C154.26 74.624 154.624 74.2605 154.624 73.812C154.624 73.3635 154.26 73 153.812 73C153.364 73 153 73.3635 153 73.812C153 74.2605 153.364 74.624 153.812 74.624Z" fill="#F8F8F8"/>
<path d="M173.634 74.2676C173.984 74.2676 174.268 73.9838 174.268 73.6338C174.268 73.2838 173.984 73 173.634 73C173.284 73 173 73.2838 173 73.6338C173 73.9838 173.284 74.2676 173.634 74.2676Z" fill="#F8F8F8"/>
<path d="M193.5 74C193.776 74 194 73.7761 194 73.5C194 73.2239 193.776 73 193.5 73C193.224 73 193 73.2239 193 73.5C193 73.7761 193.224 74 193.5 74Z" fill="#F8F8F8"/>
<path d="M213.5 74C213.776 74 214 73.7761 214 73.5C214 73.2239 213.776 73 213.5 73C213.224 73 213 73.2239 213 73.5C213 73.7761 213.224 74 213.5 74Z" fill="#F8F8F8"/>
<path d="M233.5 74C233.776 74 234 73.7761 234 73.5C234 73.2239 233.776 73 233.5 73C233.224 73 233 73.2239 233 73.5C233 73.7761 233.224 74 233.5 74Z" fill="#F8F8F8"/>
<path d="M253.5 74C253.776 74 254 73.7761 254 73.5C254 73.2239 253.776 73 253.5 73C253.224 73 253 73.2239 253 73.5C253 73.7761 253.224 74 253.5 74Z" fill="#F8F8F8"/>
<path d="M273.5 74C273.776 74 274 73.7761 274 73.5C274 73.2239 273.776 73 273.5 73C273.224 73 273 73.2239 273 73.5C273 73.7761 273.224 74 273.5 74Z" fill="#F8F8F8"/>
<path d="M293.5 74C293.776 74 294 73.7761 294 73.5C294 73.2239 293.776 73 293.5 73C293.224 73 293 73.2239 293 73.5C293 73.7761 293.224 74 293.5 74Z" fill="#F8F8F8"/>
<path d="M313.5 74C313.776 74 314 73.7761 314 73.5C314 73.2239 313.776 73 313.5 73C313.224 73 313 73.2239 313 73.5C313 73.7761 313.224 74 313.5 74Z" fill="#F8F8F8"/>
<path d="M333.5 74C333.776 74 334 73.7761 334 73.5C334 73.2239 333.776 73 333.5 73C333.224 73 333 73.2239 333 73.5C333 73.7761 333.224 74 333.5 74Z" fill="#F8F8F8"/>
<path d="M353.5 74C353.776 74 354 73.7761 354 73.5C354 73.2239 353.776 73 353.5 73C353.224 73 353 73.2239 353 73.5C353 73.7761 353.224 74 353.5 74Z" fill="#F8F8F8"/>
<path opacity="0.3" d="M53.9654 95.4308C54.7747 95.4308 55.4308 94.7747 55.4308 93.9654C55.4308 93.1561 54.7747 92.5 53.9654 92.5C53.1561 92.5 52.5 93.1561 52.5 93.9654C52.5 94.7747 53.1561 95.4308 53.9654 95.4308Z" fill="#F8F8F8"/>
<path opacity="0.4" d="M73.8466 95.1932C74.5903 95.1932 75.1932 94.5903 75.1932 93.8466C75.1932 93.1029 74.5903 92.5 73.8466 92.5C73.1029 92.5 72.5 93.1029 72.5 93.8466C72.5 94.5903 73.1029 95.1932 73.8466 95.1932Z" fill="#F8F8F8"/>
<path opacity="0.4" d="M93.708 94.916C94.3752 94.916 94.916 94.3752 94.916 93.708C94.916 93.0408 94.3752 92.5 93.708 92.5C93.0408 92.5 92.5 93.0408 92.5 93.708C92.5 94.3752 93.0408 94.916 93.708 94.916Z" fill="#F8F8F8"/>
<path opacity="0.4" d="M113.53 94.5596C114.099 94.5596 114.56 94.0985 114.56 93.5298C114.56 92.9611 114.099 92.5 113.53 92.5C112.961 92.5 112.5 92.9611 112.5 93.5298C112.5 94.0985 112.961 94.5596 113.53 94.5596Z" fill="#F8F8F8"/>
<path d="M133.891 94.7824C134.383 94.7824 134.782 94.3834 134.782 93.8912C134.782 93.399 134.383 93 133.891 93C133.399 93 133 93.399 133 93.8912C133 94.3834 133.399 94.7824 133.891 94.7824Z" fill="#F8F8F8"/>
<path d="M153.733 94.4656C154.138 94.4656 154.466 94.1375 154.466 93.7328C154.466 93.3281 154.138 93 153.733 93C153.328 93 153 93.3281 153 93.7328C153 94.1375 153.328 94.4656 153.733 94.4656Z" fill="#F8F8F8"/>
<path d="M173.555 94.1092C173.861 94.1092 174.109 93.8609 174.109 93.5546C174.109 93.2483 173.861 93 173.555 93C173.248 93 173 93.2483 173 93.5546C173 93.8609 173.248 94.1092 173.555 94.1092Z" fill="#F8F8F8"/>
<path d="M193.5 94C193.776 94 194 93.7761 194 93.5C194 93.2239 193.776 93 193.5 93C193.224 93 193 93.2239 193 93.5C193 93.7761 193.224 94 193.5 94Z" fill="#F8F8F8"/>
<path d="M213.5 94C213.776 94 214 93.7761 214 93.5C214 93.2239 213.776 93 213.5 93C213.224 93 213 93.2239 213 93.5C213 93.7761 213.224 94 213.5 94Z" fill="#F8F8F8"/>
<path d="M233.5 94C233.776 94 234 93.7761 234 93.5C234 93.2239 233.776 93 233.5 93C233.224 93 233 93.2239 233 93.5C233 93.7761 233.224 94 233.5 94Z" fill="#F8F8F8"/>
<path d="M253.5 94C253.776 94 254 93.7761 254 93.5C254 93.2239 253.776 93 253.5 93C253.224 93 253 93.2239 253 93.5C253 93.7761 253.224 94 253.5 94Z" fill="#F8F8F8"/>
<path d="M273.5 94C273.776 94 274 93.7761 274 93.5C274 93.2239 273.776 93 273.5 93C273.224 93 273 93.2239 273 93.5C273 93.7761 273.224 94 273.5 94Z" fill="#F8F8F8"/>
<path d="M293.5 94C293.776 94 294 93.7761 294 93.5C294 93.2239 293.776 93 293.5 93C293.224 93 293 93.2239 293 93.5C293 93.7761 293.224 94 293.5 94Z" fill="#F8F8F8"/>
<path d="M313.5 94C313.776 94 314 93.7761 314 93.5C314 93.2239 313.776 93 313.5 93C313.224 93 313 93.2239 313 93.5C313 93.7761 313.224 94 313.5 94Z" fill="#F8F8F8"/>
<path d="M333.5 94C333.776 94 334 93.7761 334 93.5C334 93.2239 333.776 93 333.5 93C333.224 93 333 93.2239 333 93.5C333 93.7761 333.224 94 333.5 94Z" fill="#F8F8F8"/>
<path d="M353.5 94C353.776 94 354 93.7761 354 93.5C354 93.2239 353.776 93 353.5 93C353.224 93 353 93.2239 353 93.5C353 93.7761 353.224 94 353.5 94Z" fill="#F8F8F8"/>
<path opacity="0.3" d="M53.8664 115.232C54.621 115.232 55.2328 114.621 55.2328 113.866C55.2328 113.111 54.621 112.5 53.8664 112.5C53.1118 112.5 52.5 113.111 52.5 113.866C52.5 114.621 53.1118 115.232 53.8664 115.232Z" fill="#F8F8F8"/>
<path opacity="0.4" d="M73.7476 114.996C74.4366 114.996 74.9952 114.437 74.9952 113.748C74.9952 113.059 74.4366 112.5 73.7476 112.5C73.0586 112.5 72.5 113.059 72.5 113.748C72.5 114.437 73.0586 114.996 73.7476 114.996Z" fill="#F8F8F8"/>
<path opacity="0.4" d="M93.609 114.718C94.2215 114.718 94.718 114.221 94.718 113.609C94.718 112.997 94.2215 112.5 93.609 112.5C92.9965 112.5 92.5 112.997 92.5 113.609C92.5 114.221 92.9965 114.718 93.609 114.718Z" fill="#F8F8F8"/>
<path opacity="0.4" d="M113.97 114.94C114.506 114.94 114.941 114.506 114.941 113.97C114.941 113.434 114.506 113 113.97 113C113.434 113 113 113.434 113 113.97C113 114.506 113.434 114.94 113.97 114.94Z" fill="#F8F8F8"/>
<path d="M133.832 114.664C134.291 114.664 134.664 114.291 134.664 113.832C134.664 113.372 134.291 113 133.832 113C133.372 113 133 113.372 133 113.832C133 114.291 133.372 114.664 133.832 114.664Z" fill="#F8F8F8"/>
<path d="M153.673 114.346C154.045 114.346 154.347 114.045 154.347 113.673C154.347 113.301 154.045 113 153.673 113C153.301 113 153 113.301 153 113.673C153 114.045 153.301 114.346 153.673 114.346Z" fill="#F8F8F8"/>
<path d="M173.555 114.11C173.861 114.11 174.109 113.861 174.109 113.555C174.109 113.249 173.861 113 173.555 113C173.248 113 173 113.249 173 113.555C173 113.861 173.248 114.11 173.555 114.11Z" fill="#F8F8F8"/>
<path d="M193.5 114C193.776 114 194 113.776 194 113.5C194 113.224 193.776 113 193.5 113C193.224 113 193 113.224 193 113.5C193 113.776 193.224 114 193.5 114Z" fill="#F8F8F8"/>
<path d="M213.5 114C213.776 114 214 113.776 214 113.5C214 113.224 213.776 113 213.5 113C213.224 113 213 113.224 213 113.5C213 113.776 213.224 114 213.5 114Z" fill="#F8F8F8"/>
<path d="M233.5 114C233.776 114 234 113.776 234 113.5C234 113.224 233.776 113 233.5 113C233.224 113 233 113.224 233 113.5C233 113.776 233.224 114 233.5 114Z" fill="#F8F8F8"/>
<path d="M253.5 114C253.776 114 254 113.776 254 113.5C254 113.224 253.776 113 253.5 113C253.224 113 253 113.224 253 113.5C253 113.776 253.224 114 253.5 114Z" fill="#F8F8F8"/>
<path d="M273.5 114C273.776 114 274 113.776 274 113.5C274 113.224 273.776 113 273.5 113C273.224 113 273 113.224 273 113.5C273 113.776 273.224 114 273.5 114Z" fill="#F8F8F8"/>
<path d="M293.5 114C293.776 114 294 113.776 294 113.5C294 113.224 293.776 113 293.5 113C293.224 113 293 113.224 293 113.5C293 113.776 293.224 114 293.5 114Z" fill="#F8F8F8"/>
<path d="M313.5 114C313.776 114 314 113.776 314 113.5C314 113.224 313.776 113 313.5 113C313.224 113 313 113.224 313 113.5C313 113.776 313.224 114 313.5 114Z" fill="#F8F8F8"/>
<path d="M333.5 114C333.776 114 334 113.776 334 113.5C334 113.224 333.776 113 333.5 113C333.224 113 333 113.224 333 113.5C333 113.776 333.224 114 333.5 114Z" fill="#F8F8F8"/>
<path d="M353.5 114C353.776 114 354 113.776 354 113.5C354 113.224 353.776 113 353.5 113C353.224 113 353 113.224 353 113.5C353 113.776 353.224 114 353.5 114Z" fill="#F8F8F8"/>
<path d="M53.7674 135.034C54.4674 135.034 55.0348 134.467 55.0348 133.767C55.0348 133.067 54.4674 132.5 53.7674 132.5C53.0674 132.5 52.5 133.067 52.5 133.767C52.5 134.467 53.0674 135.034 53.7674 135.034Z" fill="#F8F8F8"/>
<path d="M73.6684 134.836C74.3137 134.836 74.8368 134.313 74.8368 133.668C74.8368 133.023 74.3137 132.5 73.6684 132.5C73.0231 132.5 72.5 133.023 72.5 133.668C72.5 134.313 73.0231 134.836 73.6684 134.836Z" fill="#F8F8F8"/>
<path d="M93.5496 134.6C94.1293 134.6 94.5992 134.13 94.5992 133.55C94.5992 132.97 94.1293 132.5 93.5496 132.5C92.9699 132.5 92.5 132.97 92.5 133.55C92.5 134.13 92.9699 134.6 93.5496 134.6Z" fill="#F8F8F8"/>
<path d="M113.911 134.822C114.414 134.822 114.822 134.414 114.822 133.911C114.822 133.408 114.414 133 113.911 133C113.408 133 113 133.408 113 133.911C113 134.414 113.408 134.822 113.911 134.822Z" fill="#F8F8F8"/>
<path d="M133.812 134.624C134.26 134.624 134.624 134.26 134.624 133.812C134.624 133.364 134.26 133 133.812 133C133.364 133 133 133.364 133 133.812C133 134.26 133.364 134.624 133.812 134.624Z" fill="#F8F8F8"/>
<path d="M153.673 134.346C154.045 134.346 154.347 134.045 154.347 133.673C154.347 133.301 154.045 133 153.673 133C153.301 133 153 133.301 153 133.673C153 134.045 153.301 134.346 153.673 134.346Z" fill="#F8F8F8"/>
<path d="M173.574 134.148C173.892 134.148 174.149 133.891 174.149 133.574C174.149 133.257 173.892 133 173.574 133C173.257 133 173 133.257 173 133.574C173 133.891 173.257 134.148 173.574 134.148Z" fill="#F8F8F8"/>
<path d="M193.515 134.03C193.799 134.03 194.03 133.799 194.03 133.515C194.03 133.231 193.799 133 193.515 133C193.231 133 193 133.231 193 133.515C193 133.799 193.231 134.03 193.515 134.03Z" fill="#F8F8F8"/>
<path d="M213.5 134C213.776 134 214 133.776 214 133.5C214 133.224 213.776 133 213.5 133C213.224 133 213 133.224 213 133.5C213 133.776 213.224 134 213.5 134Z" fill="#F8F8F8"/>
<path d="M233.5 134C233.776 134 234 133.776 234 133.5C234 133.224 233.776 133 233.5 133C233.224 133 233 133.224 233 133.5C233 133.776 233.224 134 233.5 134Z" fill="#F8F8F8"/>
<path d="M253.5 134C253.776 134 254 133.776 254 133.5C254 133.224 253.776 133 253.5 133C253.224 133 253 133.224 253 133.5C253 133.776 253.224 134 253.5 134Z" fill="#F8F8F8"/>
<path d="M273.5 134C273.776 134 274 133.776 274 133.5C274 133.224 273.776 133 273.5 133C273.224 133 273 133.224 273 133.5C273 133.776 273.224 134 273.5 134Z" fill="#F8F8F8"/>
<path d="M293.5 134C293.776 134 294 133.776 294 133.5C294 133.224 293.776 133 293.5 133C293.224 133 293 133.224 293 133.5C293 133.776 293.224 134 293.5 134Z" fill="#F8F8F8"/>
<path d="M313.5 134C313.776 134 314 133.776 314 133.5C314 133.224 313.776 133 313.5 133C313.224 133 313 133.224 313 133.5C313 133.776 313.224 134 313.5 134Z" fill="#F8F8F8"/>
<path d="M333.5 134C333.776 134 334 133.776 334 133.5C334 133.224 333.776 133 333.5 133C333.224 133 333 133.224 333 133.5C333 133.776 333.224 134 333.5 134Z" fill="#F8F8F8"/>
<path d="M353.5 134C353.776 134 354 133.776 354 133.5C354 133.224 353.776 133 353.5 133C353.224 133 353 133.224 353 133.5C353 133.776 353.224 134 353.5 134Z" fill="#F8F8F8"/>
<path d="M53.6882 154.876C54.3444 154.876 54.8764 154.344 54.8764 153.688C54.8764 153.032 54.3444 152.5 53.6882 152.5C53.032 152.5 52.5 153.032 52.5 153.688C52.5 154.344 53.032 154.876 53.6882 154.876Z" fill="#F8F8F8"/>
<path d="M73.5892 154.678C74.1908 154.678 74.6784 154.191 74.6784 153.589C74.6784 152.988 74.1908 152.5 73.5892 152.5C72.9877 152.5 72.5 152.988 72.5 153.589C72.5 154.191 72.9877 154.678 73.5892 154.678Z" fill="#F8F8F8"/>
<path d="M93.9902 154.98C94.5371 154.98 94.9804 154.537 94.9804 153.99C94.9804 153.443 94.5371 153 93.9902 153C93.4433 153 93 153.443 93 153.99C93 154.537 93.4433 154.98 93.9902 154.98Z" fill="#F8F8F8"/>
<path d="M313.5 154C313.776 154 314 153.776 314 153.5C314 153.224 313.776 153 313.5 153C313.224 153 313 153.224 313 153.5C313 153.776 313.224 154 313.5 154Z" fill="#F8F8F8"/>
<path d="M333.5 154C333.776 154 334 153.776 334 153.5C334 153.224 333.776 153 333.5 153C333.224 153 333 153.224 333 153.5C333 153.776 333.224 154 333.5 154Z" fill="#F8F8F8"/>
<path d="M353.5 154C353.776 154 354 153.776 354 153.5C354 153.224 353.776 153 353.5 153C353.224 153 353 153.224 353 153.5C353 153.776 353.224 154 353.5 154Z" fill="#F8F8F8"/>
<path d="M53.5892 174.678C54.1907 174.678 54.6784 174.191 54.6784 173.589C54.6784 172.988 54.1907 172.5 53.5892 172.5C52.9877 172.5 52.5 172.988 52.5 173.589C52.5 174.191 52.9877 174.678 53.5892 174.678Z" fill="#F8F8F8"/>
<path d="M73.5298 174.56C74.0985 174.56 74.5596 174.099 74.5596 173.53C74.5596 172.961 74.0985 172.5 73.5298 172.5C72.9611 172.5 72.5 172.961 72.5 173.53C72.5 174.099 72.9611 174.56 73.5298 174.56Z" fill="#F8F8F8"/>
<path d="M93.9506 174.902C94.4756 174.902 94.9012 174.476 94.9012 173.951C94.9012 173.426 94.4756 173 93.9506 173C93.4256 173 93 173.426 93 173.951C93 174.476 93.4256 174.902 93.9506 174.902Z" fill="#F8F8F8"/>
<path d="M313.555 174.11C313.861 174.11 314.109 173.861 314.109 173.555C314.109 173.249 313.861 173 313.555 173C313.248 173 313 173.249 313 173.555C313 173.861 313.248 174.11 313.555 174.11Z" fill="#F8F8F8"/>
<path d="M333.5 174C333.776 174 334 173.776 334 173.5C334 173.224 333.776 173 333.5 173C333.224 173 333 173.224 333 173.5C333 173.776 333.224 174 333.5 174Z" fill="#F8F8F8"/>
<path d="M353.5 174C353.776 174 354 173.776 354 173.5C354 173.224 353.776 173 353.5 173C353.224 173 353 173.224 353 173.5C353 173.776 353.224 174 353.5 174Z" fill="#F8F8F8"/>
<path d="M53.5298 194.56C54.0985 194.56 54.5596 194.099 54.5596 193.53C54.5596 192.961 54.0985 192.5 53.5298 192.5C52.9611 192.5 52.5 192.961 52.5 193.53C52.5 194.099 52.9611 194.56 53.5298 194.56Z" fill="#F8F8F8"/>
<path d="M73.9902 194.98C74.5371 194.98 74.9804 194.537 74.9804 193.99C74.9804 193.443 74.5371 193 73.9902 193C73.4433 193 73 193.443 73 193.99C73 194.537 73.4433 194.98 73.9902 194.98Z" fill="#F8F8F8"/>
<path d="M93.9506 194.902C94.4756 194.902 94.9012 194.476 94.9012 193.951C94.9012 193.426 94.4756 193 93.9506 193C93.4256 193 93 193.426 93 193.951C93 194.476 93.4256 194.902 93.9506 194.902Z" fill="#F8F8F8"/>
<path d="M313.713 194.426C314.107 194.426 314.426 194.107 314.426 193.713C314.426 193.319 314.107 193 313.713 193C313.319 193 313 193.319 313 193.713C313 194.107 313.319 194.426 313.713 194.426Z" fill="#F8F8F8"/>
<path d="M333.634 194.268C333.984 194.268 334.268 193.984 334.268 193.634C334.268 193.284 333.984 193 333.634 193C333.284 193 333 193.284 333 193.634C333 193.984 333.284 194.268 333.634 194.268Z" fill="#F8F8F8"/>
<path d="M353.574 194.148C353.892 194.148 354.149 193.891 354.149 193.574C354.149 193.257 353.892 193 353.574 193C353.257 193 353 193.257 353 193.574C353 193.891 353.257 194.148 353.574 194.148Z" fill="#F8F8F8"/>
<path d="M53.9704 214.94C54.5063 214.94 54.9408 214.506 54.9408 213.97C54.9408 213.434 54.5063 213 53.9704 213C53.4345 213 53 213.434 53 213.97C53 214.506 53.4345 214.94 53.9704 214.94Z" fill="#F8F8F8"/>
<path d="M73.9506 214.902C74.4756 214.902 74.9012 214.476 74.9012 213.951C74.9012 213.426 74.4756 213 73.9506 213C73.4256 213 73 213.426 73 213.951C73 214.476 73.4256 214.902 73.9506 214.902Z" fill="#F8F8F8"/>
<path d="M93.9506 214.902C94.4756 214.902 94.9012 214.476 94.9012 213.951C94.9012 213.426 94.4756 213 93.9506 213C93.4256 213 93 213.426 93 213.951C93 214.476 93.4256 214.902 93.9506 214.902Z" fill="#F8F8F8"/>
<path d="M313.871 214.742C314.353 214.742 314.743 214.352 314.743 213.871C314.743 213.39 314.353 213 313.871 213C313.39 213 313 213.39 313 213.871C313 214.352 313.39 214.742 313.871 214.742Z" fill="#F8F8F8"/>
<path d="M333.792 214.584C334.23 214.584 334.584 214.23 334.584 213.792C334.584 213.355 334.23 213 333.792 213C333.355 213 333 213.355 333 213.792C333 214.23 333.355 214.584 333.792 214.584Z" fill="#F8F8F8"/>
<path d="M353.693 214.386C354.076 214.386 354.386 214.076 354.386 213.693C354.386 213.31 354.076 213 353.693 213C353.31 213 353 213.31 353 213.693C353 214.076 353.31 214.386 353.693 214.386Z" fill="#F8F8F8"/>
<path d="M53.9506 234.902C54.4756 234.902 54.9012 234.476 54.9012 233.951C54.9012 233.426 54.4756 233 53.9506 233C53.4256 233 53 233.426 53 233.951C53 234.476 53.4256 234.902 53.9506 234.902Z" fill="#F8F8F8"/>
<path d="M73.9506 234.902C74.4756 234.902 74.9012 234.476 74.9012 233.951C74.9012 233.426 74.4756 233 73.9506 233C73.4256 233 73 233.426 73 233.951C73 234.476 73.4256 234.902 73.9506 234.902Z" fill="#F8F8F8"/>
<path d="M93.9704 234.94C94.5063 234.94 94.9408 234.506 94.9408 233.97C94.9408 233.434 94.5063 233 93.9704 233C93.4345 233 93 233.434 93 233.97C93 234.506 93.4345 234.94 93.9704 234.94Z" fill="#F8F8F8"/>
<path d="M313.51 234.52C314.068 234.52 314.52 234.068 314.52 233.51C314.52 232.952 314.068 232.5 313.51 232.5C312.952 232.5 312.5 232.952 312.5 233.51C312.5 234.068 312.952 234.52 313.51 234.52Z" fill="#F8F8F8"/>
<path d="M333.911 234.822C334.414 234.822 334.822 234.414 334.822 233.911C334.822 233.408 334.414 233 333.911 233C333.408 233 333 233.408 333 233.911C333 234.414 333.408 234.822 333.911 234.822Z" fill="#F8F8F8"/>
<path d="M353.812 234.624C354.26 234.624 354.624 234.26 354.624 233.812C354.624 233.364 354.26 233 353.812 233C353.364 233 353 233.364 353 233.812C353 234.26 353.364 234.624 353.812 234.624Z" fill="#F8F8F8"/>
<path d="M53.911 254.822C54.4141 254.822 54.822 254.414 54.822 253.911C54.822 253.408 54.4141 253 53.911 253C53.4079 253 53 253.408 53 253.911C53 254.414 53.4079 254.822 53.911 254.822Z" fill="#F8F8F8"/>
<path d="M73.9506 254.902C74.4756 254.902 74.9012 254.476 74.9012 253.951C74.9012 253.426 74.4756 253 73.9506 253C73.4256 253 73 253.426 73 253.951C73 254.476 73.4256 254.902 73.9506 254.902Z" fill="#F8F8F8"/>
<path d="M93.9902 254.98C94.5371 254.98 94.9804 254.537 94.9804 253.99C94.9804 253.443 94.5371 253 93.9902 253C93.4433 253 93 253.443 93 253.99C93 254.537 93.4433 254.98 93.9902 254.98Z" fill="#F8F8F8"/>
<path d="M313.589 254.678C314.191 254.678 314.678 254.191 314.678 253.589C314.678 252.988 314.191 252.5 313.589 252.5C312.988 252.5 312.5 252.988 312.5 253.589C312.5 254.191 312.988 254.678 313.589 254.678Z" fill="#F8F8F8"/>
<path d="M333.51 254.52C334.068 254.52 334.52 254.068 334.52 253.51C334.52 252.952 334.068 252.5 333.51 252.5C332.952 252.5 332.5 252.952 332.5 253.51C332.5 254.068 332.952 254.52 333.51 254.52Z" fill="#F8F8F8"/>
<path d="M353.911 254.822C354.414 254.822 354.822 254.414 354.822 253.911C354.822 253.408 354.414 253 353.911 253C353.408 253 353 253.408 353 253.911C353 254.414 353.408 254.822 353.911 254.822Z" fill="#F8F8F8"/>
<path d="M53.911 274.822C54.4141 274.822 54.822 274.414 54.822 273.911C54.822 273.408 54.4141 273 53.911 273C53.4079 273 53 273.408 53 273.911C53 274.414 53.4079 274.822 53.911 274.822Z" fill="#F8F8F8"/>
<path opacity="0.5" d="M73.9506 274.902C74.4756 274.902 74.9012 274.476 74.9012 273.951C74.9012 273.426 74.4756 273 73.9506 273C73.4256 273 73 273.426 73 273.951C73 274.476 73.4256 274.902 73.9506 274.902Z" fill="#F8F8F8"/>
<path opacity="0.5" d="M93.5298 274.56C94.0985 274.56 94.5596 274.099 94.5596 273.53C94.5596 272.961 94.0985 272.5 93.5298 272.5C92.9611 272.5 92.5 272.961 92.5 273.53C92.5 274.099 92.9611 274.56 93.5298 274.56Z" fill="#F8F8F8"/>
<path d="M113.609 274.718C114.221 274.718 114.718 274.221 114.718 273.609C114.718 272.997 114.221 272.5 113.609 272.5C112.997 272.5 112.5 272.997 112.5 273.609C112.5 274.221 112.997 274.718 113.609 274.718Z" fill="#F8F8F8"/>
<path d="M133.668 274.836C134.314 274.836 134.837 274.313 134.837 273.668C134.837 273.023 134.314 272.5 133.668 272.5C133.023 272.5 132.5 273.023 132.5 273.668C132.5 274.313 133.023 274.836 133.668 274.836Z" fill="#F8F8F8"/>
<path d="M153.728 274.956C154.406 274.956 154.956 274.406 154.956 273.728C154.956 273.05 154.406 272.5 153.728 272.5C153.05 272.5 152.5 273.05 152.5 273.728C152.5 274.406 153.05 274.956 153.728 274.956Z" fill="#F8F8F8"/>
<path d="M253.807 275.114C254.529 275.114 255.114 274.529 255.114 273.807C255.114 273.085 254.529 272.5 253.807 272.5C253.085 272.5 252.5 273.085 252.5 273.807C252.5 274.529 253.085 275.114 253.807 275.114Z" fill="#F8F8F8"/>
<path d="M273.787 275.074C274.498 275.074 275.074 274.498 275.074 273.787C275.074 273.076 274.498 272.5 273.787 272.5C273.076 272.5 272.5 273.076 272.5 273.787C272.5 274.498 273.076 275.074 273.787 275.074Z" fill="#F8F8F8"/>
<path d="M293.748 274.996C294.437 274.996 294.995 274.437 294.995 273.748C294.995 273.059 294.437 272.5 293.748 272.5C293.059 272.5 292.5 273.059 292.5 273.748C292.5 274.437 293.059 274.996 293.748 274.996Z" fill="#F8F8F8"/>
<path d="M313.708 274.916C314.375 274.916 314.916 274.375 314.916 273.708C314.916 273.041 314.375 272.5 313.708 272.5C313.041 272.5 312.5 273.041 312.5 273.708C312.5 274.375 313.041 274.916 313.708 274.916Z" fill="#F8F8F8"/>
<path d="M333.609 274.718C334.221 274.718 334.718 274.221 334.718 273.609C334.718 272.997 334.221 272.5 333.609 272.5C332.997 272.5 332.5 272.997 332.5 273.609C332.5 274.221 332.997 274.718 333.609 274.718Z" fill="#F8F8F8"/>
<path d="M353.51 274.52C354.068 274.52 354.52 274.068 354.52 273.51C354.52 272.952 354.068 272.5 353.51 272.5C352.952 272.5 352.5 272.952 352.5 273.51C352.5 274.068 352.952 274.52 353.51 274.52Z" fill="#F8F8F8"/>
<path d="M53.8912 294.782C54.3834 294.782 54.7824 294.383 54.7824 293.891C54.7824 293.399 54.3834 293 53.8912 293C53.399 293 53 293.399 53 293.891C53 294.383 53.399 294.782 53.8912 294.782Z" fill="#F8F8F8"/>
<path opacity="0.5" d="M73.9704 294.94C74.5063 294.94 74.9408 294.506 74.9408 293.97C74.9408 293.434 74.5063 293 73.9704 293C73.4345 293 73 293.434 73 293.97C73 294.506 73.4345 294.94 73.9704 294.94Z" fill="#F8F8F8"/>
<path opacity="0.5" d="M93.5496 294.6C94.1293 294.6 94.5992 294.13 94.5992 293.55C94.5992 292.97 94.1293 292.5 93.5496 292.5C92.9699 292.5 92.5 292.97 92.5 293.55C92.5 294.13 92.9699 294.6 93.5496 294.6Z" fill="#F8F8F8"/>
<path d="M113.649 294.798C114.283 294.798 114.797 294.283 114.797 293.649C114.797 293.015 114.283 292.5 113.649 292.5C113.014 292.5 112.5 293.015 112.5 293.649C112.5 294.283 113.014 294.798 113.649 294.798Z" fill="#F8F8F8"/>
<path d="M133.728 294.956C134.406 294.956 134.956 294.406 134.956 293.728C134.956 293.05 134.406 292.5 133.728 292.5C133.05 292.5 132.5 293.05 132.5 293.728C132.5 294.406 133.05 294.956 133.728 294.956Z" fill="#F8F8F8"/>
<path d="M153.807 295.114C154.529 295.114 155.114 294.529 155.114 293.807C155.114 293.085 154.529 292.5 153.807 292.5C153.085 292.5 152.5 293.085 152.5 293.807C152.5 294.529 153.085 295.114 153.807 295.114Z" fill="#F8F8F8"/>
<path d="M253.906 295.312C254.683 295.312 255.312 294.683 255.312 293.906C255.312 293.129 254.683 292.5 253.906 292.5C253.129 292.5 252.5 293.129 252.5 293.906C252.5 294.683 253.129 295.312 253.906 295.312Z" fill="#F8F8F8"/>
<path d="M273.886 295.272C274.652 295.272 275.272 294.652 275.272 293.886C275.272 293.121 274.652 292.5 273.886 292.5C273.121 292.5 272.5 293.121 272.5 293.886C272.5 294.652 273.121 295.272 273.886 295.272Z" fill="#F8F8F8"/>
<path d="M293.847 295.194C294.59 295.194 295.193 294.591 295.193 293.847C295.193 293.103 294.59 292.5 293.847 292.5C293.103 292.5 292.5 293.103 292.5 293.847C292.5 294.591 293.103 295.194 293.847 295.194Z" fill="#F8F8F8"/>
<path d="M313.787 295.074C314.498 295.074 315.074 294.498 315.074 293.787C315.074 293.076 314.498 292.5 313.787 292.5C313.076 292.5 312.5 293.076 312.5 293.787C312.5 294.498 313.076 295.074 313.787 295.074Z" fill="#F8F8F8"/>
<path d="M333.708 294.916C334.375 294.916 334.916 294.375 334.916 293.708C334.916 293.041 334.375 292.5 333.708 292.5C333.041 292.5 332.5 293.041 332.5 293.708C332.5 294.375 333.041 294.916 333.708 294.916Z" fill="#F8F8F8"/>
<path d="M353.589 294.678C354.191 294.678 354.678 294.191 354.678 293.589C354.678 292.988 354.191 292.5 353.589 292.5C352.988 292.5 352.5 292.988 352.5 293.589C352.5 294.191 352.988 294.678 353.589 294.678Z" fill="#F8F8F8"/>
<path opacity="0.5" d="M53.911 314.822C54.4141 314.822 54.822 314.414 54.822 313.911C54.822 313.408 54.4141 313 53.911 313C53.4079 313 53 313.408 53 313.911C53 314.414 53.4079 314.822 53.911 314.822Z" fill="#F8F8F8"/>
<path opacity="0.5" d="M73.9902 314.98C74.5371 314.98 74.9804 314.537 74.9804 313.99C74.9804 313.443 74.5371 313 73.9902 313C73.4433 313 73 313.443 73 313.99C73 314.537 73.4433 314.98 73.9902 314.98Z" fill="#F8F8F8"/>
<path opacity="0.5" d="M93.5892 314.678C94.1908 314.678 94.6784 314.191 94.6784 313.589C94.6784 312.988 94.1908 312.5 93.5892 312.5C92.9877 312.5 92.5 312.988 92.5 313.589C92.5 314.191 92.9877 314.678 93.5892 314.678Z" fill="#F8F8F8"/>
<path d="M113.688 314.876C114.344 314.876 114.876 314.344 114.876 313.688C114.876 313.032 114.344 312.5 113.688 312.5C113.032 312.5 112.5 313.032 112.5 313.688C112.5 314.344 113.032 314.876 113.688 314.876Z" fill="#F8F8F8"/>
<path d="M133.767 315.034C134.467 315.034 135.035 314.467 135.035 313.767C135.035 313.067 134.467 312.5 133.767 312.5C133.067 312.5 132.5 313.067 132.5 313.767C132.5 314.467 133.067 315.034 133.767 315.034Z" fill="#F8F8F8"/>
<path d="M153.847 315.194C154.59 315.194 155.193 314.591 155.193 313.847C155.193 313.103 154.59 312.5 153.847 312.5C153.103 312.5 152.5 313.103 152.5 313.847C152.5 314.591 153.103 315.194 153.847 315.194Z" fill="#F8F8F8"/>
<path d="M253.965 315.43C254.775 315.43 255.431 314.774 255.431 313.965C255.431 313.156 254.775 312.5 253.965 312.5C253.156 312.5 252.5 313.156 252.5 313.965C252.5 314.774 253.156 315.43 253.965 315.43Z" fill="#F8F8F8"/>
<path d="M273.946 315.392C274.744 315.392 275.391 314.744 275.391 313.946C275.391 313.148 274.744 312.5 273.946 312.5C273.147 312.5 272.5 313.148 272.5 313.946C272.5 314.744 273.147 315.392 273.946 315.392Z" fill="#F8F8F8"/>
<path opacity="0.3" d="M293.906 315.312C294.683 315.312 295.312 314.683 295.312 313.906C295.312 313.129 294.683 312.5 293.906 312.5C293.129 312.5 292.5 313.129 292.5 313.906C292.5 314.683 293.129 315.312 293.906 315.312Z" fill="#F8F8F8"/>
<path opacity="0.3" d="M313.866 315.232C314.621 315.232 315.233 314.621 315.233 313.866C315.233 313.111 314.621 312.5 313.866 312.5C313.112 312.5 312.5 313.111 312.5 313.866C312.5 314.621 313.112 315.232 313.866 315.232Z" fill="#F8F8F8"/>
<path opacity="0.3" d="M333.787 315.074C334.498 315.074 335.074 314.498 335.074 313.787C335.074 313.076 334.498 312.5 333.787 312.5C333.076 312.5 332.5 313.076 332.5 313.787C332.5 314.498 333.076 315.074 333.787 315.074Z" fill="#F8F8F8"/>
<path d="M353.668 314.836C354.314 314.836 354.837 314.313 354.837 313.668C354.837 313.023 354.314 312.5 353.668 312.5C353.023 312.5 352.5 313.023 352.5 313.668C352.5 314.313 353.023 314.836 353.668 314.836Z" fill="#F8F8F8"/>
<path opacity="0.5" d="M53.9308 334.862C54.4449 334.862 54.8616 334.445 54.8616 333.931C54.8616 333.417 54.4449 333 53.9308 333C53.4167 333 53 333.417 53 333.931C53 334.445 53.4167 334.862 53.9308 334.862Z" fill="#F8F8F8"/>
<path opacity="0.5" d="M73.51 334.52C74.0678 334.52 74.52 334.068 74.52 333.51C74.52 332.952 74.0678 332.5 73.51 332.5C72.9522 332.5 72.5 332.952 72.5 333.51C72.5 334.068 72.9522 334.52 73.51 334.52Z" fill="#F8F8F8"/>
<path opacity="0.5" d="M93.609 334.718C94.2215 334.718 94.718 334.221 94.718 333.609C94.718 332.997 94.2215 332.5 93.609 332.5C92.9965 332.5 92.5 332.997 92.5 333.609C92.5 334.221 92.9965 334.718 93.609 334.718Z" fill="#F8F8F8"/>
<path d="M113.708 334.916C114.375 334.916 114.916 334.375 114.916 333.708C114.916 333.041 114.375 332.5 113.708 332.5C113.041 332.5 112.5 333.041 112.5 333.708C112.5 334.375 113.041 334.916 113.708 334.916Z" fill="#F8F8F8"/>
<path d="M133.787 335.074C134.498 335.074 135.074 334.498 135.074 333.787C135.074 333.076 134.498 332.5 133.787 332.5C133.076 332.5 132.5 333.076 132.5 333.787C132.5 334.498 133.076 335.074 133.787 335.074Z" fill="#F8F8F8"/>
<path opacity="0.3" d="M153.866 335.232C154.621 335.232 155.233 334.621 155.233 333.866C155.233 333.111 154.621 332.5 153.866 332.5C153.112 332.5 152.5 333.111 152.5 333.866C152.5 334.621 153.112 335.232 153.866 335.232Z" fill="#F8F8F8"/>
<path opacity="0.3" d="M173.926 335.352C174.713 335.352 175.352 334.713 175.352 333.926C175.352 333.138 174.713 332.5 173.926 332.5C173.138 332.5 172.5 333.138 172.5 333.926C172.5 334.713 173.138 335.352 173.926 335.352Z" fill="#F8F8F8"/>
<path opacity="0.3" d="M193.965 335.43C194.775 335.43 195.431 334.774 195.431 333.965C195.431 333.156 194.775 332.5 193.965 332.5C193.156 332.5 192.5 333.156 192.5 333.965C192.5 334.774 193.156 335.43 193.965 335.43Z" fill="#F8F8F8"/>
<path opacity="0.3" d="M213.985 335.47C214.805 335.47 215.47 334.805 215.47 333.985C215.47 333.165 214.805 332.5 213.985 332.5C213.165 332.5 212.5 333.165 212.5 333.985C212.5 334.805 213.165 335.47 213.985 335.47Z" fill="#F8F8F8"/>
<path opacity="0.3" d="M233.505 335.01C234.336 335.01 235.01 334.336 235.01 333.505C235.01 332.674 234.336 332 233.505 332C232.674 332 232 332.674 232 333.505C232 334.336 232.674 335.01 233.505 335.01Z" fill="#F8F8F8"/>
<path opacity="0.3" d="M253.505 335.01C254.336 335.01 255.01 334.336 255.01 333.505C255.01 332.674 254.336 332 253.505 332C252.674 332 252 332.674 252 333.505C252 334.336 252.674 335.01 253.505 335.01Z" fill="#F8F8F8"/>
<path d="M273.985 335.47C274.805 335.47 275.47 334.805 275.47 333.985C275.47 333.165 274.805 332.5 273.985 332.5C273.165 332.5 272.5 333.165 272.5 333.985C272.5 334.805 273.165 335.47 273.985 335.47Z" fill="#F8F8F8"/>
<path opacity="0.3" d="M293.965 335.43C294.775 335.43 295.431 334.774 295.431 333.965C295.431 333.156 294.775 332.5 293.965 332.5C293.156 332.5 292.5 333.156 292.5 333.965C292.5 334.774 293.156 335.43 293.965 335.43Z" fill="#F8F8F8"/>
<path opacity="0.3" d="M313.926 335.352C314.713 335.352 315.352 334.713 315.352 333.926C315.352 333.138 314.713 332.5 313.926 332.5C313.138 332.5 312.5 333.138 312.5 333.926C312.5 334.713 313.138 335.352 313.926 335.352Z" fill="#F8F8F8"/>
<path opacity="0.3" d="M333.847 335.194C334.59 335.194 335.193 334.591 335.193 333.847C335.193 333.103 334.59 332.5 333.847 332.5C333.103 332.5 332.5 333.103 332.5 333.847C332.5 334.591 333.103 335.194 333.847 335.194Z" fill="#F8F8F8"/>
<path d="M353.748 334.996C354.437 334.996 354.995 334.437 354.995 333.748C354.995 333.059 354.437 332.5 353.748 332.5C353.059 332.5 352.5 333.059 352.5 333.748C352.5 334.437 353.059 334.996 353.748 334.996Z" fill="#F8F8F8"/>
<path opacity="0.5" d="M53.9902 354.98C54.5371 354.98 54.9804 354.537 54.9804 353.99C54.9804 353.443 54.5371 353 53.9902 353C53.4433 353 53 353.443 53 353.99C53 354.537 53.4433 354.98 53.9902 354.98Z" fill="#F8F8F8"/>
<path opacity="0.5" d="M73.5298 354.56C74.0985 354.56 74.5596 354.099 74.5596 353.53C74.5596 352.961 74.0985 352.5 73.5298 352.5C72.9611 352.5 72.5 352.961 72.5 353.53C72.5 354.099 72.9611 354.56 73.5298 354.56Z" fill="#F8F8F8"/>
<path opacity="0.5" d="M93.6288 354.758C94.2522 354.758 94.7576 354.252 94.7576 353.629C94.7576 353.005 94.2522 352.5 93.6288 352.5C93.0054 352.5 92.5 353.005 92.5 353.629C92.5 354.252 93.0054 354.758 93.6288 354.758Z" fill="#F8F8F8"/>
<path d="M113.708 354.916C114.375 354.916 114.916 354.375 114.916 353.708C114.916 353.041 114.375 352.5 113.708 352.5C113.041 352.5 112.5 353.041 112.5 353.708C112.5 354.375 113.041 354.916 113.708 354.916Z" fill="#F8F8F8"/>
<path d="M133.787 355.074C134.498 355.074 135.074 354.498 135.074 353.787C135.074 353.076 134.498 352.5 133.787 352.5C133.076 352.5 132.5 353.076 132.5 353.787C132.5 354.498 133.076 355.074 133.787 355.074Z" fill="#F8F8F8"/>
<path opacity="0.3" d="M153.866 355.232C154.621 355.232 155.233 354.621 155.233 353.866C155.233 353.111 154.621 352.5 153.866 352.5C153.112 352.5 152.5 353.111 152.5 353.866C152.5 354.621 153.112 355.232 153.866 355.232Z" fill="#F8F8F8"/>
<path opacity="0.3" d="M173.926 355.352C174.713 355.352 175.352 354.713 175.352 353.926C175.352 353.138 174.713 352.5 173.926 352.5C173.138 352.5 172.5 353.138 172.5 353.926C172.5 354.713 173.138 355.352 173.926 355.352Z" fill="#F8F8F8"/>
<path opacity="0.3" d="M193.965 355.43C194.775 355.43 195.431 354.774 195.431 353.965C195.431 353.156 194.775 352.5 193.965 352.5C193.156 352.5 192.5 353.156 192.5 353.965C192.5 354.774 193.156 355.43 193.965 355.43Z" fill="#F8F8F8"/>
<path opacity="0.3" d="M213.985 355.47C214.805 355.47 215.47 354.805 215.47 353.985C215.47 353.165 214.805 352.5 213.985 352.5C213.165 352.5 212.5 353.165 212.5 353.985C212.5 354.805 213.165 355.47 213.985 355.47Z" fill="#F8F8F8"/>
<path opacity="0.3" d="M233.505 355.01C234.336 355.01 235.01 354.336 235.01 353.505C235.01 352.674 234.336 352 233.505 352C232.674 352 232 352.674 232 353.505C232 354.336 232.674 355.01 233.505 355.01Z" fill="#F8F8F8"/>
<path opacity="0.3" d="M253.505 355.01C254.336 355.01 255.01 354.336 255.01 353.505C255.01 352.674 254.336 352 253.505 352C252.674 352 252 352.674 252 353.505C252 354.336 252.674 355.01 253.505 355.01Z" fill="#F8F8F8"/>
<path d="M273.505 355.01C274.336 355.01 275.01 354.336 275.01 353.505C275.01 352.674 274.336 352 273.505 352C272.674 352 272 352.674 272 353.505C272 354.336 272.674 355.01 273.505 355.01Z" fill="#F8F8F8"/>
<path d="M293.505 355.01C294.336 355.01 295.01 354.336 295.01 353.505C295.01 352.674 294.336 352 293.505 352C292.674 352 292 352.674 292 353.505C292 354.336 292.674 355.01 293.505 355.01Z" fill="#F8F8F8"/>
<path d="M313.965 355.43C314.775 355.43 315.431 354.774 315.431 353.965C315.431 353.156 314.775 352.5 313.965 352.5C313.156 352.5 312.5 353.156 312.5 353.965C312.5 354.774 313.156 355.43 313.965 355.43Z" fill="#F8F8F8"/>
<path d="M333.906 355.312C334.683 355.312 335.312 354.683 335.312 353.906C335.312 353.129 334.683 352.5 333.906 352.5C333.129 352.5 332.5 353.129 332.5 353.906C332.5 354.683 333.129 355.312 333.906 355.312Z" fill="#F8F8F8"/>
<path d="M353.807 355.114C354.529 355.114 355.114 354.529 355.114 353.807C355.114 353.085 354.529 352.5 353.807 352.5C353.085 352.5 352.5 353.085 352.5 353.807C352.5 354.529 353.085 355.114 353.807 355.114Z" fill="#F8F8F8"/>
</g>
</g>
</g>
<g filter="url(#filter0_i_2980_4599)">
<g style="mix-blend-mode:luminosity">
<path d="M250 152H158C148.059 152 140 160.059 140 170V237C140 246.941 148.059 255 158 255H250C259.941 255 268 246.941 268 237V170C268 160.059 259.941 152 250 152Z" fill="#282828" fill-opacity="0.7"/>
</g>
<path d="M250 152.75H158C148.473 152.75 140.75 160.473 140.75 170V237C140.75 246.527 148.473 254.25 158 254.25H250C259.527 254.25 267.25 246.527 267.25 237V170C267.25 160.473 259.527 152.75 250 152.75Z" stroke="url(#paint1_linear_2980_4599)" stroke-opacity="0.25" stroke-width="1.5"/>
</g>
<g filter="url(#filter1_d_2980_4599)">
<g style="mix-blend-mode:luminosity">
<path d="M250 158H158C151.373 158 146 163.373 146 170V222C146 228.627 151.373 234 158 234H250C256.627 234 262 228.627 262 222V170C262 163.373 256.627 158 250 158Z" fill="#F8F8F8" fill-opacity="0.05"/>
</g>
<path d="M250 158.75H158C151.787 158.75 146.75 163.787 146.75 170V222C146.75 228.213 151.787 233.25 158 233.25H250C256.213 233.25 261.25 228.213 261.25 222V170C261.25 163.787 256.213 158.75 250 158.75Z" stroke="url(#paint2_linear_2980_4599)" stroke-opacity="0.25" stroke-width="1.5"/>
</g>
<g filter="url(#filter2_i_2980_4599)">
<g style="mix-blend-mode:luminosity">
<path fill-rule="evenodd" clip-rule="evenodd" d="M195.2 242.839C191.176 242.839 187.352 239.608 183.329 239.608H136C132.686 239.608 130 242.294 130 245.608V249.608C130 252.922 132.686 255.608 136 255.608H272C275.314 255.608 278 252.922 278 249.608V245.608C278 242.294 275.314 239.608 272 239.608H224.672C220.648 239.608 216.824 242.839 212.8 242.839H195.2Z" fill="#282828" fill-opacity="0.7"/>
</g>
<mask id="mask2_2980_4599" style="mask-type:luminance" maskUnits="userSpaceOnUse" x="130" y="239" width="148" height="17">
<path fill-rule="evenodd" clip-rule="evenodd" d="M195.2 242.839C191.176 242.839 187.352 239.608 183.329 239.608H136C132.686 239.608 130 242.294 130 245.608V249.608C130 252.922 132.686 255.608 136 255.608H272C275.314 255.608 278 252.922 278 249.608V245.608C278 242.294 275.314 239.608 272 239.608H224.672C220.648 239.608 216.824 242.839 212.8 242.839H195.2Z" fill="white"/>
</mask>
<g mask="url(#mask2_2980_4599)">
<path d="M136 241.108H183.329V238.108H136V241.108ZM131.5 245.608C131.5 243.123 133.515 241.108 136 241.108V238.108C131.858 238.108 128.5 241.466 128.5 245.608H131.5ZM131.5 249.608V245.608H128.5V249.608H131.5ZM136 254.108C133.515 254.108 131.5 252.093 131.5 249.608H128.5C128.5 253.75 131.858 257.108 136 257.108V254.108ZM272 254.108H136V257.108H272V254.108ZM276.5 249.608C276.5 252.093 274.485 254.108 272 254.108V257.108C276.142 257.108 279.5 253.75 279.5 249.608H276.5ZM276.5 245.608V249.608H279.5V245.608H276.5ZM272 241.108C274.485 241.108 276.5 243.123 276.5 245.608H279.5C279.5 241.466 276.142 238.108 272 238.108V241.108ZM224.672 241.108H272V238.108H224.672V241.108ZM212.8 241.339H195.2V244.339H212.8V241.339ZM224.672 238.108C222.309 238.108 220.065 239.054 218.165 239.836C216.141 240.669 214.462 241.339 212.8 241.339V244.339C215.162 244.339 217.406 243.393 219.307 242.611C221.33 241.778 223.01 241.108 224.672 241.108V238.108ZM183.329 241.108C184.99 241.108 186.67 241.778 188.693 242.611C190.594 243.393 192.838 244.339 195.2 244.339V241.339C193.538 241.339 191.859 240.669 189.835 239.836C187.935 239.054 185.691 238.108 183.329 238.108V241.108Z" fill="url(#paint3_linear_2980_4599)" fill-opacity="0.25"/>
</g>
</g>
<g filter="url(#filter3_i_2980_4599)">
<g style="mix-blend-mode:luminosity">
<path fill-rule="evenodd" clip-rule="evenodd" d="M195.2 242.839C191.176 242.839 187.352 239.608 183.329 239.608H136C132.686 239.608 130 242.294 130 245.608V249.608C130 252.922 132.686 255.608 136 255.608H272C275.314 255.608 278 252.922 278 249.608V245.608C278 242.294 275.314 239.608 272 239.608H224.672C220.648 239.608 216.824 242.839 212.8 242.839H195.2Z" fill="#282828" fill-opacity="0.7"/>
</g>
<mask id="mask3_2980_4599" style="mask-type:luminance" maskUnits="userSpaceOnUse" x="130" y="239" width="148" height="17">
<path fill-rule="evenodd" clip-rule="evenodd" d="M195.2 242.839C191.176 242.839 187.352 239.608 183.329 239.608H136C132.686 239.608 130 242.294 130 245.608V249.608C130 252.922 132.686 255.608 136 255.608H272C275.314 255.608 278 252.922 278 249.608V245.608C278 242.294 275.314 239.608 272 239.608H224.672C220.648 239.608 216.824 242.839 212.8 242.839H195.2Z" fill="white"/>
</mask>
<g mask="url(#mask3_2980_4599)">
<path d="M136 241.108H183.329V238.108H136V241.108ZM131.5 245.608C131.5 243.123 133.515 241.108 136 241.108V238.108C131.858 238.108 128.5 241.466 128.5 245.608H131.5ZM131.5 249.608V245.608H128.5V249.608H131.5ZM136 254.108C133.515 254.108 131.5 252.093 131.5 249.608H128.5C128.5 253.75 131.858 257.108 136 257.108V254.108ZM272 254.108H136V257.108H272V254.108ZM276.5 249.608C276.5 252.093 274.485 254.108 272 254.108V257.108C276.142 257.108 279.5 253.75 279.5 249.608H276.5ZM276.5 245.608V249.608H279.5V245.608H276.5ZM272 241.108C274.485 241.108 276.5 243.123 276.5 245.608H279.5C279.5 241.466 276.142 238.108 272 238.108V241.108ZM224.672 241.108H272V238.108H224.672V241.108ZM212.8 241.339H195.2V244.339H212.8V241.339ZM224.672 238.108C222.309 238.108 220.065 239.054 218.165 239.836C216.141 240.669 214.462 241.339 212.8 241.339V244.339C215.162 244.339 217.406 243.393 219.307 242.611C221.33 241.778 223.01 241.108 224.672 241.108V238.108ZM183.329 241.108C184.99 241.108 186.67 241.778 188.693 242.611C190.594 243.393 192.838 244.339 195.2 244.339V241.339C193.538 241.339 191.859 240.669 189.835 239.836C187.935 239.054 185.691 238.108 183.329 238.108V241.108Z" fill="url(#paint4_linear_2980_4599)" fill-opacity="0.25"/>
</g>
</g>
<mask id="mask4_2980_4599" style="mask-type:alpha" maskUnits="userSpaceOnUse" x="0" y="158" width="408" height="76">
<path d="M408 158H0V234H408V158Z" fill="url(#paint5_linear_2980_4599)"/>
</mask>
<g mask="url(#mask4_2980_4599)">
<g filter="url(#filter4_i_2980_4599)">
<g style="mix-blend-mode:luminosity">
<path d="M52 164H12C5.37258 164 0 169.373 0 176V216C0 222.627 5.37258 228 12 228H52C58.6274 228 64 222.627 64 216V176C64 169.373 58.6274 164 52 164Z" fill="white" fill-opacity="0.01"/>
</g>
<path d="M52 164.75H12C5.7868 164.75 0.75 169.787 0.75 176V216C0.75 222.213 5.7868 227.25 12 227.25H52C58.2132 227.25 63.25 222.213 63.25 216V176C63.25 169.787 58.2132 164.75 52 164.75Z" stroke="url(#paint6_linear_2980_4599)" stroke-opacity="0.25" stroke-width="1.5"/>
<path opacity="0.5" d="M39 176H13C12.4477 176 12 176.448 12 177V179C12 179.552 12.4477 180 13 180H39C39.5523 180 40 179.552 40 179V177C40 176.448 39.5523 176 39 176Z" fill="#F8F8F8"/>
<path opacity="0.1" d="M51 183H13C12.4477 183 12 183.448 12 184V186C12 186.552 12.4477 187 13 187H51C51.5523 187 52 186.552 52 186V184C52 183.448 51.5523 183 51 183Z" fill="#F8F8F8"/>
<path opacity="0.1" d="M51 190H13C12.4477 190 12 190.448 12 191V193C12 193.552 12.4477 194 13 194H51C51.5523 194 52 193.552 52 193V191C52 190.448 51.5523 190 51 190Z" fill="#F8F8F8"/>
</g>
<g filter="url(#filter5_i_2980_4599)">
<g style="mix-blend-mode:luminosity">
<path d="M122 164H82C75.3726 164 70 169.373 70 176V216C70 222.627 75.3726 228 82 228H122C128.627 228 134 222.627 134 216V176C134 169.373 128.627 164 122 164Z" fill="white" fill-opacity="0.01"/>
</g>
<path d="M122 164.75H82C75.7868 164.75 70.75 169.787 70.75 176V216C70.75 222.213 75.7868 227.25 82 227.25H122C128.213 227.25 133.25 222.213 133.25 216V176C133.25 169.787 128.213 164.75 122 164.75Z" stroke="url(#paint7_linear_2980_4599)" stroke-opacity="0.25" stroke-width="1.5"/>
<path opacity="0.5" d="M109 176H83C82.4477 176 82 176.448 82 177V179C82 179.552 82.4477 180 83 180H109C109.552 180 110 179.552 110 179V177C110 176.448 109.552 176 109 176Z" fill="#F8F8F8"/>
<path opacity="0.1" d="M121 183H83C82.4477 183 82 183.448 82 184V186C82 186.552 82.4477 187 83 187H121C121.552 187 122 186.552 122 186V184C122 183.448 121.552 183 121 183Z" fill="#F8F8F8"/>
<path opacity="0.1" d="M121 190H83C82.4477 190 82 190.448 82 191V193C82 193.552 82.4477 194 83 194H121C121.552 194 122 193.552 122 193V191C122 190.448 121.552 190 121 190Z" fill="#F8F8F8"/>
</g>
<g filter="url(#filter6_di_2980_4599)">
<g style="mix-blend-mode:luminosity">
<path d="M250 158H158C151.373 158 146 163.373 146 170V222C146 228.627 151.373 234 158 234H250C256.627 234 262 228.627 262 222V170C262 163.373 256.627 158 250 158Z" fill="white" fill-opacity="0.05"/>
</g>
<path d="M250 158.75H158C151.787 158.75 146.75 163.787 146.75 170V222C146.75 228.213 151.787 233.25 158 233.25H250C256.213 233.25 261.25 228.213 261.25 222V170C261.25 163.787 256.213 158.75 250 158.75Z" stroke="#F8F8F8" stroke-opacity="0.4" stroke-width="1.5"/>
<path opacity="0.5" d="M185 206H159C158.448 206 158 206.448 158 207V209C158 209.552 158.448 210 159 210H185C185.552 210 186 209.552 186 209V207C186 206.448 185.552 206 185 206Z" fill="#F8F8F8"/>
<path opacity="0.1" d="M209 212H159C158.448 212 158 212.448 158 213V215C158 215.552 158.448 216 159 216H209C209.552 216 210 215.552 210 215V213C210 212.448 209.552 212 209 212Z" fill="#F8F8F8"/>
<path opacity="0.1" d="M185 218H159C158.448 218 158 218.448 158 219V221C158 221.552 158.448 222 159 222H185C185.552 222 186 221.552 186 221V219C186 218.448 185.552 218 185 218Z" fill="#F8F8F8"/>
<g filter="url(#filter7_di_2980_4599)">
<mask id="mask5_2980_4599" style="mask-type:luminance" maskUnits="userSpaceOnUse" x="221" y="166" width="32" height="32">
<path d="M253 182C253 173.163 245.837 166 237 166C228.163 166 221 173.163 221 182C221 190.837 228.163 198 237 198C245.837 198 253 190.837 253 182Z" fill="white"/>
</mask>
<g mask="url(#mask5_2980_4599)">
<path d="M253 182C253 173.163 245.837 166 237 166C228.163 166 221 173.163 221 182C221 190.837 228.163 198 237 198C245.837 198 253 190.837 253 182Z" fill="#F8F8F8" fill-opacity="0.01"/>
<g filter="url(#filter8_f_2980_4599)">
<path d="M247.588 173.764C247.588 158.17 234.946 145.529 219.352 145.529C203.759 145.529 191.117 158.17 191.117 173.764C191.117 189.358 203.759 201.999 219.352 201.999C234.946 201.999 247.588 189.358 247.588 173.764Z" fill="#F8F8F8" fill-opacity="0.2"/>
</g>
<g filter="url(#filter9_dd_2980_4599)">
<path fill-rule="evenodd" clip-rule="evenodd" d="M242.608 177.724C243.129 178.245 243.129 179.089 242.608 179.61L236.608 185.61C236.088 186.13 235.244 186.13 234.723 185.61L232.056 182.943C231.536 182.422 231.536 181.578 232.056 181.057C232.577 180.537 233.421 180.537 233.942 181.057L235.666 182.781L240.723 177.724C241.244 177.203 242.088 177.203 242.608 177.724Z" fill="url(#paint8_linear_2980_4599)"/>
</g>
</g>
</g>
</g>
<g filter="url(#filter10_i_2980_4599)">
<g style="mix-blend-mode:luminosity">
<path d="M326 164H286C279.373 164 274 169.373 274 176V216C274 222.627 279.373 228 286 228H326C332.627 228 338 222.627 338 216V176C338 169.373 332.627 164 326 164Z" fill="white" fill-opacity="0.01"/>
</g>
<path d="M326 164.75H286C279.787 164.75 274.75 169.787 274.75 176V216C274.75 222.213 279.787 227.25 286 227.25H326C332.213 227.25 337.25 222.213 337.25 216V176C337.25 169.787 332.213 164.75 326 164.75Z" stroke="url(#paint9_linear_2980_4599)" stroke-opacity="0.25" stroke-width="1.5"/>
<path opacity="0.5" d="M313 176H287C286.448 176 286 176.448 286 177V179C286 179.552 286.448 180 287 180H313C313.552 180 314 179.552 314 179V177C314 176.448 313.552 176 313 176Z" fill="#F8F8F8"/>
<path opacity="0.1" d="M325 183H287C286.448 183 286 183.448 286 184V186C286 186.552 286.448 187 287 187H325C325.552 187 326 186.552 326 186V184C326 183.448 325.552 183 325 183Z" fill="#F8F8F8"/>
<path opacity="0.1" d="M325 190H287C286.448 190 286 190.448 286 191V193C286 193.552 286.448 194 287 194H325C325.552 194 326 193.552 326 193V191C326 190.448 325.552 190 325 190Z" fill="#F8F8F8"/>
</g>
<g filter="url(#filter11_i_2980_4599)">
<g style="mix-blend-mode:luminosity">
<path d="M396 164H356C349.373 164 344 169.373 344 176V216C344 222.627 349.373 228 356 228H396C402.627 228 408 222.627 408 216V176C408 169.373 402.627 164 396 164Z" fill="white" fill-opacity="0.01"/>
</g>
<path d="M396 164.75H356C349.787 164.75 344.75 169.787 344.75 176V216C344.75 222.213 349.787 227.25 356 227.25H396C402.213 227.25 407.25 222.213 407.25 216V176C407.25 169.787 402.213 164.75 396 164.75Z" stroke="url(#paint10_linear_2980_4599)" stroke-opacity="0.25" stroke-width="1.5"/>
<path opacity="0.5" d="M383 176H357C356.448 176 356 176.448 356 177V179C356 179.552 356.448 180 357 180H383C383.552 180 384 179.552 384 179V177C384 176.448 383.552 176 383 176Z" fill="#F8F8F8"/>
<path opacity="0.1" d="M395 183H357C356.448 183 356 183.448 356 184V186C356 186.552 356.448 187 357 187H395C395.552 187 396 186.552 396 186V184C396 183.448 395.552 183 395 183Z" fill="#F8F8F8"/>
<path opacity="0.1" d="M395 190H357C356.448 190 356 190.448 356 191V193C356 193.552 356.448 194 357 194H395C395.552 194 396 193.552 396 193V191C396 190.448 395.552 190 395 190Z" fill="#F8F8F8"/>
</g>
</g>
<mask id="mask6_2980_4599" style="mask-type:alpha" maskUnits="userSpaceOnUse" x="25" y="0" width="364" height="408">
<path d="M389 0H25V408H389V0Z" fill="url(#paint11_linear_2980_4599)"/>
</mask>
<g mask="url(#mask6_2980_4599)">
<path opacity="0.1" d="M132 404V303.053C132 302.053 131.626 301.104 130.951 300.366L113.497 281.299C112.739 280.471 111.669 280 110.546 280H68H25.4536C24.3314 280 23.2608 280.471 22.5031 281.299L5.0495 300.366C4.37442 301.104 4 302.053 4 303.053V404C4 406.21 5.79086 408 8 408H128C130.209 408 132 406.21 132 404Z" fill="url(#paint12_linear_2980_4599)"/>
<path opacity="0.5" d="M268 404V303.053C268 302.053 267.626 301.104 266.951 300.366L249.497 281.299C248.739 280.471 247.669 280 246.546 280H204H161.454C160.331 280 159.261 280.471 158.503 281.299L141.05 300.366C140.374 301.104 140 302.053 140 303.053V404C140 406.21 141.791 408 144 408H264C266.209 408 268 406.21 268 404Z" fill="url(#paint13_linear_2980_4599)"/>
<path opacity="0.5" d="M268 404V303.053C268 302.053 267.626 301.104 266.951 300.366L249.497 281.299C248.739 280.471 247.669 280 246.546 280H204H161.454C160.331 280 159.261 280.471 158.503 281.299L141.05 300.366C140.374 301.104 140 302.053 140 303.053V404C140 406.21 141.791 408 144 408H264C266.209 408 268 406.21 268 404Z" stroke="url(#paint14_linear_2980_4599)" stroke-width="1.5"/>
<path opacity="0.1" d="M404 404V303.053C404 302.053 403.626 301.104 402.951 300.366L385.497 281.299C384.739 280.471 383.669 280 382.546 280H340H297.454C296.331 280 295.261 280.471 294.503 281.299L277.05 300.366C276.374 301.104 276 302.053 276 303.053V404C276 406.21 277.791 408 280 408H400C402.209 408 404 406.21 404 404Z" fill="url(#paint15_linear_2980_4599)"/>
<path opacity="0.1" d="M131 3.9995V104.947C131 105.947 130.626 106.896 129.951 107.634L112.497 126.701C111.739 127.529 110.669 128 109.546 128H67H24.4536C23.3314 128 22.2608 127.529 21.5031 126.701L4.0495 107.634C3.37442 106.896 3 105.947 3 104.947V3.9995C3 1.79036 4.79086 0 7 0H127C129.209 0 131 1.79036 131 3.9995Z" fill="url(#paint16_linear_2980_4599)"/>
<path opacity="0.5" d="M267 3.9995V104.947C267 105.947 266.626 106.896 265.951 107.634L248.497 126.701C247.739 127.529 246.669 128 245.546 128H203H160.454C159.331 128 158.261 127.529 157.503 126.701L140.05 107.634C139.374 106.896 139 105.947 139 104.947V3.9995C139 1.79036 140.791 0 143 0H263C265.209 0 267 1.79036 267 3.9995Z" fill="url(#paint17_linear_2980_4599)"/>
<path opacity="0.5" d="M267 3.9995V104.947C267 105.947 266.626 106.896 265.951 107.634L248.497 126.701C247.739 127.529 246.669 128 245.546 128H203H160.454C159.331 128 158.261 127.529 157.503 126.701L140.05 107.634C139.374 106.896 139 105.947 139 104.947V3.9995C139 1.79036 140.791 0 143 0H263C265.209 0 267 1.79036 267 3.9995Z" stroke="url(#paint18_linear_2980_4599)" stroke-width="1.5"/>
<path opacity="0.1" d="M403 3.9995V104.947C403 105.947 402.626 106.896 401.951 107.634L384.497 126.701C383.739 127.529 382.669 128 381.546 128H339H296.454C295.331 128 294.261 127.529 293.503 126.701L276.05 107.634C275.374 106.896 275 105.947 275 104.947V3.9995C275 1.79036 276.791 0 279 0H399C401.209 0 403 1.79036 403 3.9995Z" fill="url(#paint19_linear_2980_4599)"/>
</g>
<g filter="url(#filter12_di_2980_4599)">
<g style="mix-blend-mode:luminosity">
<path d="M208 107C208 104.791 206.209 103 204 103C201.791 103 200 104.791 200 107C200 109.209 201.791 111 204 111C206.209 111 208 109.209 208 107Z" fill="#282828" fill-opacity="0.7"/>
</g>
<path d="M207.25 107C207.25 105.205 205.795 103.75 204 103.75C202.205 103.75 200.75 105.205 200.75 107C200.75 108.795 202.205 110.25 204 110.25C205.795 110.25 207.25 108.795 207.25 107Z" stroke="url(#paint20_linear_2980_4599)" stroke-opacity="0.25" stroke-width="1.5"/>
</g>
<g filter="url(#filter13_di_2980_4599)">
<g style="mix-blend-mode:luminosity">
<path d="M208 300C208 297.791 206.209 296 204 296C201.791 296 200 297.791 200 300C200 302.209 201.791 304 204 304C206.209 304 208 302.209 208 300Z" fill="#282828" fill-opacity="0.7"/>
</g>
<path d="M207.25 300C207.25 298.205 205.795 296.75 204 296.75C202.205 296.75 200.75 298.205 200.75 300C200.75 301.795 202.205 303.25 204 303.25C205.795 303.25 207.25 301.795 207.25 300Z" stroke="url(#paint21_linear_2980_4599)" stroke-opacity="0.25" stroke-width="1.5"/>
</g>
<mask id="mask7_2980_4599" style="mask-type:alpha" maskUnits="userSpaceOnUse" x="22" y="29" width="364" height="352">
<path d="M386 29H22V381H386V29Z" fill="url(#paint22_linear_2980_4599)"/>
</mask>
<g mask="url(#mask7_2980_4599)">
<path d="M209 267H199C198.448 267 198 267.448 198 268V270C198 270.552 198.448 271 199 271H209C209.552 271 210 270.552 210 270V268C210 267.448 209.552 267 209 267Z" fill="#F8F8F8" fill-opacity="0.1"/>
<path opacity="0.1" d="M200 271V362" stroke="url(#paint23_linear_2980_4599)" stroke-width="1.5"/>
<path opacity="0.1" d="M204 271V362" stroke="url(#paint24_linear_2980_4599)" stroke-width="1.5"/>
<path opacity="0.1" d="M208 271V362" stroke="url(#paint25_linear_2980_4599)" stroke-width="1.5"/>
<path opacity="0.5" d="M204 285V273" stroke="#F8F8F8" stroke-width="1.5"/>
<path opacity="0.1" d="M200 332V320" stroke="#F8F8F8" stroke-width="1.5"/>
<path d="M209 143H199C198.448 143 198 142.552 198 142V140C198 139.448 198.448 139 199 139H209C209.552 139 210 139.448 210 140V142C210 142.552 209.552 143 209 143Z" fill="#F8F8F8" fill-opacity="0.1"/>
<path opacity="0.1" d="M200 139V48" stroke="url(#paint26_linear_2980_4599)" stroke-width="1.5"/>
<path opacity="0.1" d="M204 139V48" stroke="url(#paint27_linear_2980_4599)" stroke-width="1.5"/>
<path opacity="0.1" d="M208 139V48" stroke="url(#paint28_linear_2980_4599)" stroke-width="1.5"/>
<path opacity="0.5" d="M204 122V134" stroke="#F8F8F8" stroke-width="1.5"/>
<path opacity="0.1" d="M200 78V90" stroke="#F8F8F8" stroke-width="1.5"/>
</g>
</g>
<defs>
<filter id="filter0_i_2980_4599" x="140" y="152" width="128" height="103" filterUnits="userSpaceOnUse" color-interpolation-filters="sRGB">
<feFlood flood-opacity="0" result="BackgroundImageFix"/>
<feBlend mode="normal" in="SourceGraphic" in2="BackgroundImageFix" result="shape"/>
<feColorMatrix in="SourceAlpha" type="matrix" values="0 0 0 0 0 0 0 0 0 0 0 0 0 0 0 0 0 0 127 0" result="hardAlpha"/>
<feOffset/>
<feGaussianBlur stdDeviation="4"/>
<feComposite in2="hardAlpha" operator="arithmetic" k2="-1" k3="1"/>
<feColorMatrix type="matrix" values="0 0 0 0 0.972549 0 0 0 0 0.972549 0 0 0 0 0.972549 0 0 0 0.25 0"/>
<feBlend mode="normal" in2="shape" result="effect1_innerShadow_2980_4599"/>
</filter>
<filter id="filter1_d_2980_4599" x="122" y="158" width="164" height="124" filterUnits="userSpaceOnUse" color-interpolation-filters="sRGB">
<feFlood flood-opacity="0" result="BackgroundImageFix"/>
<feColorMatrix in="SourceAlpha" type="matrix" values="0 0 0 0 0 0 0 0 0 0 0 0 0 0 0 0 0 0 127 0" result="hardAlpha"/>
<feOffset dy="24"/>
<feGaussianBlur stdDeviation="12"/>
<feComposite in2="hardAlpha" operator="out"/>
<feColorMatrix type="matrix" values="0 0 0 0 0 0 0 0 0 0 0 0 0 0 0 0 0 0 0.3 0"/>
<feBlend mode="normal" in2="BackgroundImageFix" result="effect1_dropShadow_2980_4599"/>
<feBlend mode="normal" in="SourceGraphic" in2="effect1_dropShadow_2980_4599" result="shape"/>
</filter>
<filter id="filter2_i_2980_4599" x="130" y="239.608" width="148" height="16" filterUnits="userSpaceOnUse" color-interpolation-filters="sRGB">
<feFlood flood-opacity="0" result="BackgroundImageFix"/>
<feBlend mode="normal" in="SourceGraphic" in2="BackgroundImageFix" result="shape"/>
<feColorMatrix in="SourceAlpha" type="matrix" values="0 0 0 0 0 0 0 0 0 0 0 0 0 0 0 0 0 0 127 0" result="hardAlpha"/>
<feOffset/>
<feGaussianBlur stdDeviation="4"/>
<feComposite in2="hardAlpha" operator="arithmetic" k2="-1" k3="1"/>
<feColorMatrix type="matrix" values="0 0 0 0 0.972549 0 0 0 0 0.972549 0 0 0 0 0.972549 0 0 0 0.25 0"/>
<feBlend mode="normal" in2="shape" result="effect1_innerShadow_2980_4599"/>
</filter>
<filter id="filter3_i_2980_4599" x="130" y="239.608" width="148" height="16" filterUnits="userSpaceOnUse" color-interpolation-filters="sRGB">
<feFlood flood-opacity="0" result="BackgroundImageFix"/>
<feBlend mode="normal" in="SourceGraphic" in2="BackgroundImageFix" result="shape"/>
<feColorMatrix in="SourceAlpha" type="matrix" values="0 0 0 0 0 0 0 0 0 0 0 0 0 0 0 0 0 0 127 0" result="hardAlpha"/>
<feOffset/>
<feGaussianBlur stdDeviation="4"/>
<feComposite in2="hardAlpha" operator="arithmetic" k2="-1" k3="1"/>
<feColorMatrix type="matrix" values="0 0 0 0 0.972549 0 0 0 0 0.972549 0 0 0 0 0.972549 0 0 0 0.25 0"/>
<feBlend mode="normal" in2="shape" result="effect1_innerShadow_2980_4599"/>
</filter>
<filter id="filter4_i_2980_4599" x="0" y="164" width="66" height="68" filterUnits="userSpaceOnUse" color-interpolation-filters="sRGB">
<feFlood flood-opacity="0" result="BackgroundImageFix"/>
<feBlend mode="normal" in="SourceGraphic" in2="BackgroundImageFix" result="shape"/>
<feColorMatrix in="SourceAlpha" type="matrix" values="0 0 0 0 0 0 0 0 0 0 0 0 0 0 0 0 0 0 127 0" result="hardAlpha"/>
<feOffset dx="2" dy="4"/>
<feGaussianBlur stdDeviation="8"/>
<feComposite in2="hardAlpha" operator="arithmetic" k2="-1" k3="1"/>
<feColorMatrix type="matrix" values="0 0 0 0 0.972549 0 0 0 0 0.972549 0 0 0 0 0.972549 0 0 0 0.06 0"/>
<feBlend mode="normal" in2="shape" result="effect1_innerShadow_2980_4599"/>
</filter>
<filter id="filter5_i_2980_4599" x="70" y="164" width="66" height="68" filterUnits="userSpaceOnUse" color-interpolation-filters="sRGB">
<feFlood flood-opacity="0" result="BackgroundImageFix"/>
<feBlend mode="normal" in="SourceGraphic" in2="BackgroundImageFix" result="shape"/>
<feColorMatrix in="SourceAlpha" type="matrix" values="0 0 0 0 0 0 0 0 0 0 0 0 0 0 0 0 0 0 127 0" result="hardAlpha"/>
<feOffset dx="2" dy="4"/>
<feGaussianBlur stdDeviation="8"/>
<feComposite in2="hardAlpha" operator="arithmetic" k2="-1" k3="1"/>
<feColorMatrix type="matrix" values="0 0 0 0 0.972549 0 0 0 0 0.972549 0 0 0 0 0.972549 0 0 0 0.06 0"/>
<feBlend mode="normal" in2="shape" result="effect1_innerShadow_2980_4599"/>
</filter>
<filter id="filter6_di_2980_4599" x="98" y="158" width="212" height="172" filterUnits="userSpaceOnUse" color-interpolation-filters="sRGB">
<feFlood flood-opacity="0" result="BackgroundImageFix"/>
<feColorMatrix in="SourceAlpha" type="matrix" values="0 0 0 0 0 0 0 0 0 0 0 0 0 0 0 0 0 0 127 0" result="hardAlpha"/>
<feOffset dy="48"/>
<feGaussianBlur stdDeviation="24"/>
<feComposite in2="hardAlpha" operator="out"/>
<feColorMatrix type="matrix" values="0 0 0 0 0.109804 0 0 0 0 0.12549 0 0 0 0 0.156863 0 0 0 0.5 0"/>
<feBlend mode="normal" in2="BackgroundImageFix" result="effect1_dropShadow_2980_4599"/>
<feBlend mode="normal" in="SourceGraphic" in2="effect1_dropShadow_2980_4599" result="shape"/>
<feColorMatrix in="SourceAlpha" type="matrix" values="0 0 0 0 0 0 0 0 0 0 0 0 0 0 0 0 0 0 127 0" result="hardAlpha"/>
<feOffset dx="2" dy="4"/>
<feGaussianBlur stdDeviation="8"/>
<feComposite in2="hardAlpha" operator="arithmetic" k2="-1" k3="1"/>
<feColorMatrix type="matrix" values="0 0 0 0 0.972549 0 0 0 0 0.972549 0 0 0 0 0.972549 0 0 0 0.06 0"/>
<feBlend mode="normal" in2="shape" result="effect2_innerShadow_2980_4599"/>
</filter>
<filter id="filter7_di_2980_4599" x="204.059" y="166" width="65.8824" height="71.5294" filterUnits="userSpaceOnUse" color-interpolation-filters="sRGB">
<feFlood flood-opacity="0" result="BackgroundImageFix"/>
<feColorMatrix in="SourceAlpha" type="matrix" values="0 0 0 0 0 0 0 0 0 0 0 0 0 0 0 0 0 0 127 0" result="hardAlpha"/>
<feOffset dy="22.5882"/>
<feGaussianBlur stdDeviation="8.47059"/>
<feComposite in2="hardAlpha" operator="out"/>
<feColorMatrix type="matrix" values="0 0 0 0 0 0 0 0 0 0 0 0 0 0 0 0 0 0 0.4 0"/>
<feBlend mode="normal" in2="BackgroundImageFix" result="effect1_dropShadow_2980_4599"/>
<feBlend mode="normal" in="SourceGraphic" in2="effect1_dropShadow_2980_4599" result="shape"/>
<feColorMatrix in="SourceAlpha" type="matrix" values="0 0 0 0 0 0 0 0 0 0 0 0 0 0 0 0 0 0 127 0" result="hardAlpha"/>
<feOffset/>
<feGaussianBlur stdDeviation="2.82353"/>
<feComposite in2="hardAlpha" operator="arithmetic" k2="-1" k3="1"/>
<feColorMatrix type="matrix" values="0 0 0 0 0.972549 0 0 0 0 0.972549 0 0 0 0 0.972549 0 0 0 0.25 0"/>
<feBlend mode="normal" in2="shape" result="effect2_innerShadow_2980_4599"/>
</filter>
<filter id="filter8_f_2980_4599" x="162.882" y="117.294" width="112.941" height="112.941" filterUnits="userSpaceOnUse" color-interpolation-filters="sRGB">
<feFlood flood-opacity="0" result="BackgroundImageFix"/>
<feBlend mode="normal" in="SourceGraphic" in2="BackgroundImageFix" result="shape"/>
<feGaussianBlur stdDeviation="14.1176" result="effect1_foregroundBlur_2980_4599"/>
</filter>
<filter id="filter9_dd_2980_4599" x="222.666" y="176.333" width="23.332" height="20.667" filterUnits="userSpaceOnUse" color-interpolation-filters="sRGB">
<feFlood flood-opacity="0" result="BackgroundImageFix"/>
<feColorMatrix in="SourceAlpha" type="matrix" values="0 0 0 0 0 0 0 0 0 0 0 0 0 0 0 0 0 0 127 0" result="hardAlpha"/>
<feOffset dx="-3" dy="5"/>
<feGaussianBlur stdDeviation="3"/>
<feColorMatrix type="matrix" values="0 0 0 0 0 0 0 0 0 0 0 0 0 0 0 0 0 0 0.2 0"/>
<feBlend mode="normal" in2="BackgroundImageFix" result="effect1_dropShadow_2980_4599"/>
<feColorMatrix in="SourceAlpha" type="matrix" values="0 0 0 0 0 0 0 0 0 0 0 0 0 0 0 0 0 0 127 0" result="hardAlpha"/>
<feOffset dx="-1" dy="2"/>
<feGaussianBlur stdDeviation="1.5"/>
<feComposite in2="hardAlpha" operator="out"/>
<feColorMatrix type="matrix" values="0 0 0 0 0 0 0 0 0 0 0 0 0 0 0 0 0 0 0.1 0"/>
<feBlend mode="normal" in2="effect1_dropShadow_2980_4599" result="effect2_dropShadow_2980_4599"/>
<feBlend mode="normal" in="SourceGraphic" in2="effect2_dropShadow_2980_4599" result="shape"/>
</filter>
<filter id="filter10_i_2980_4599" x="274" y="164" width="66" height="68" filterUnits="userSpaceOnUse" color-interpolation-filters="sRGB">
<feFlood flood-opacity="0" result="BackgroundImageFix"/>
<feBlend mode="normal" in="SourceGraphic" in2="BackgroundImageFix" result="shape"/>
<feColorMatrix in="SourceAlpha" type="matrix" values="0 0 0 0 0 0 0 0 0 0 0 0 0 0 0 0 0 0 127 0" result="hardAlpha"/>
<feOffset dx="2" dy="4"/>
<feGaussianBlur stdDeviation="8"/>
<feComposite in2="hardAlpha" operator="arithmetic" k2="-1" k3="1"/>
<feColorMatrix type="matrix" values="0 0 0 0 0.972549 0 0 0 0 0.972549 0 0 0 0 0.972549 0 0 0 0.06 0"/>
<feBlend mode="normal" in2="shape" result="effect1_innerShadow_2980_4599"/>
</filter>
<filter id="filter11_i_2980_4599" x="344" y="164" width="66" height="68" filterUnits="userSpaceOnUse" color-interpolation-filters="sRGB">
<feFlood flood-opacity="0" result="BackgroundImageFix"/>
<feBlend mode="normal" in="SourceGraphic" in2="BackgroundImageFix" result="shape"/>
<feColorMatrix in="SourceAlpha" type="matrix" values="0 0 0 0 0 0 0 0 0 0 0 0 0 0 0 0 0 0 127 0" result="hardAlpha"/>
<feOffset dx="2" dy="4"/>
<feGaussianBlur stdDeviation="8"/>
<feComposite in2="hardAlpha" operator="arithmetic" k2="-1" k3="1"/>
<feColorMatrix type="matrix" values="0 0 0 0 0.972549 0 0 0 0 0.972549 0 0 0 0 0.972549 0 0 0 0.06 0"/>
<feBlend mode="normal" in2="shape" result="effect1_innerShadow_2980_4599"/>
</filter>
<filter id="filter12_di_2980_4599" x="176" y="103" width="56" height="64" filterUnits="userSpaceOnUse" color-interpolation-filters="sRGB">
<feFlood flood-opacity="0" result="BackgroundImageFix"/>
<feColorMatrix in="SourceAlpha" type="matrix" values="0 0 0 0 0 0 0 0 0 0 0 0 0 0 0 0 0 0 127 0" result="hardAlpha"/>
<feOffset dy="32"/>
<feGaussianBlur stdDeviation="12"/>
<feComposite in2="hardAlpha" operator="out"/>
<feColorMatrix type="matrix" values="0 0 0 0 0 0 0 0 0 0 0 0 0 0 0 0 0 0 0.4 0"/>
<feBlend mode="normal" in2="BackgroundImageFix" result="effect1_dropShadow_2980_4599"/>
<feBlend mode="normal" in="SourceGraphic" in2="effect1_dropShadow_2980_4599" result="shape"/>
<feColorMatrix in="SourceAlpha" type="matrix" values="0 0 0 0 0 0 0 0 0 0 0 0 0 0 0 0 0 0 127 0" result="hardAlpha"/>
<feOffset/>
<feGaussianBlur stdDeviation="4"/>
<feComposite in2="hardAlpha" operator="arithmetic" k2="-1" k3="1"/>
<feColorMatrix type="matrix" values="0 0 0 0 0.972549 0 0 0 0 0.972549 0 0 0 0 0.972549 0 0 0 0.25 0"/>
<feBlend mode="normal" in2="shape" result="effect2_innerShadow_2980_4599"/>
</filter>
<filter id="filter13_di_2980_4599" x="176" y="296" width="56" height="64" filterUnits="userSpaceOnUse" color-interpolation-filters="sRGB">
<feFlood flood-opacity="0" result="BackgroundImageFix"/>
<feColorMatrix in="SourceAlpha" type="matrix" values="0 0 0 0 0 0 0 0 0 0 0 0 0 0 0 0 0 0 127 0" result="hardAlpha"/>
<feOffset dy="32"/>
<feGaussianBlur stdDeviation="12"/>
<feComposite in2="hardAlpha" operator="out"/>
<feColorMatrix type="matrix" values="0 0 0 0 0 0 0 0 0 0 0 0 0 0 0 0 0 0 0.4 0"/>
<feBlend mode="normal" in2="BackgroundImageFix" result="effect1_dropShadow_2980_4599"/>
<feBlend mode="normal" in="SourceGraphic" in2="effect1_dropShadow_2980_4599" result="shape"/>
<feColorMatrix in="SourceAlpha" type="matrix" values="0 0 0 0 0 0 0 0 0 0 0 0 0 0 0 0 0 0 127 0" result="hardAlpha"/>
<feOffset/>
<feGaussianBlur stdDeviation="4"/>
<feComposite in2="hardAlpha" operator="arithmetic" k2="-1" k3="1"/>
<feColorMatrix type="matrix" values="0 0 0 0 0.972549 0 0 0 0 0.972549 0 0 0 0 0.972549 0 0 0 0.25 0"/>
<feBlend mode="normal" in2="shape" result="effect2_innerShadow_2980_4599"/>
</filter>
<radialGradient id="paint0_radial_2980_4599" cx="0" cy="0" r="1" gradientUnits="userSpaceOnUse" gradientTransform="translate(204 204) rotate(90) scale(184)">
<stop offset="0.433142" stop-color="#737373" stop-opacity="0"/>
<stop offset="1" stop-color="#D9D9D9"/>
</radialGradient>
<linearGradient id="paint1_linear_2980_4599" x1="204" y1="152" x2="241.866" y2="270.786" gradientUnits="userSpaceOnUse">
<stop stop-color="white" stop-opacity="0.4"/>
<stop offset="0.4" stop-color="white" stop-opacity="0.01"/>
<stop offset="0.6" stop-color="white" stop-opacity="0.01"/>
<stop offset="1" stop-color="white" stop-opacity="0.1"/>
</linearGradient>
<linearGradient id="paint2_linear_2980_4599" x1="204" y1="158" x2="227.479" y2="248.461" gradientUnits="userSpaceOnUse">
<stop stop-color="white" stop-opacity="0.4"/>
<stop offset="0.4" stop-color="white" stop-opacity="0.01"/>
<stop offset="0.6" stop-color="white" stop-opacity="0.01"/>
<stop offset="1" stop-color="white" stop-opacity="0.1"/>
</linearGradient>
<linearGradient id="paint3_linear_2980_4599" x1="204" y1="239.608" x2="204.869" y2="259.898" gradientUnits="userSpaceOnUse">
<stop stop-color="white" stop-opacity="0.4"/>
<stop offset="0.4" stop-color="white" stop-opacity="0.01"/>
<stop offset="0.6" stop-color="white" stop-opacity="0.01"/>
<stop offset="1" stop-color="white" stop-opacity="0.1"/>
</linearGradient>
<linearGradient id="paint4_linear_2980_4599" x1="204" y1="239.608" x2="204.869" y2="259.898" gradientUnits="userSpaceOnUse">
<stop stop-color="white" stop-opacity="0.4"/>
<stop offset="0.4" stop-color="white" stop-opacity="0.01"/>
<stop offset="0.6" stop-color="white" stop-opacity="0.01"/>
<stop offset="1" stop-color="white" stop-opacity="0.1"/>
</linearGradient>
<linearGradient id="paint5_linear_2980_4599" x1="0" y1="196" x2="408" y2="196" gradientUnits="userSpaceOnUse">
<stop offset="0.0504196" stop-color="#D9D9D9" stop-opacity="0"/>
<stop offset="0.495145" stop-color="#737373"/>
<stop offset="0.947001" stop-color="#737373" stop-opacity="0"/>
</linearGradient>
<linearGradient id="paint6_linear_2980_4599" x1="32" y1="164" x2="59.8413" y2="234.28" gradientUnits="userSpaceOnUse">
<stop stop-color="white" stop-opacity="0.4"/>
<stop offset="0.4" stop-color="white" stop-opacity="0.01"/>
<stop offset="0.6" stop-color="white" stop-opacity="0.01"/>
<stop offset="1" stop-color="white" stop-opacity="0.1"/>
</linearGradient>
<linearGradient id="paint7_linear_2980_4599" x1="102" y1="164" x2="129.841" y2="234.28" gradientUnits="userSpaceOnUse">
<stop stop-color="white" stop-opacity="0.4"/>
<stop offset="0.4" stop-color="white" stop-opacity="0.01"/>
<stop offset="0.6" stop-color="white" stop-opacity="0.01"/>
<stop offset="1" stop-color="white" stop-opacity="0.1"/>
</linearGradient>
<linearGradient id="paint8_linear_2980_4599" x1="237.332" y1="177.333" x2="237.332" y2="186" gradientUnits="userSpaceOnUse">
<stop stop-color="#F8F8F8" stop-opacity="0.9"/>
<stop offset="1" stop-color="#F8F8F8" stop-opacity="0.3"/>
</linearGradient>
<linearGradient id="paint9_linear_2980_4599" x1="306" y1="164" x2="333.841" y2="234.28" gradientUnits="userSpaceOnUse">
<stop stop-color="white" stop-opacity="0.4"/>
<stop offset="0.4" stop-color="white" stop-opacity="0.01"/>
<stop offset="0.6" stop-color="white" stop-opacity="0.01"/>
<stop offset="1" stop-color="white" stop-opacity="0.1"/>
</linearGradient>
<linearGradient id="paint10_linear_2980_4599" x1="376" y1="164" x2="403.841" y2="234.28" gradientUnits="userSpaceOnUse">
<stop stop-color="white" stop-opacity="0.4"/>
<stop offset="0.4" stop-color="white" stop-opacity="0.01"/>
<stop offset="0.6" stop-color="white" stop-opacity="0.01"/>
<stop offset="1" stop-color="white" stop-opacity="0.1"/>
</linearGradient>
<linearGradient id="paint11_linear_2980_4599" x1="25" y1="204" x2="389" y2="204" gradientUnits="userSpaceOnUse">
<stop offset="0.0504196" stop-color="#D9D9D9" stop-opacity="0"/>
<stop offset="0.495145" stop-color="#737373"/>
<stop offset="0.947001" stop-color="#737373" stop-opacity="0"/>
</linearGradient>
<linearGradient id="paint12_linear_2980_4599" x1="68" y1="408" x2="68" y2="280" gradientUnits="userSpaceOnUse">
<stop offset="0.522974" stop-color="#F8F8F8" stop-opacity="0"/>
<stop offset="1" stop-color="#F8F8F8" stop-opacity="0.1"/>
</linearGradient>
<linearGradient id="paint13_linear_2980_4599" x1="204" y1="408" x2="204" y2="280" gradientUnits="userSpaceOnUse">
<stop offset="0.522974" stop-color="#F8F8F8" stop-opacity="0"/>
<stop offset="1" stop-color="#F8F8F8" stop-opacity="0.1"/>
</linearGradient>
<linearGradient id="paint14_linear_2980_4599" x1="204" y1="408" x2="204" y2="280" gradientUnits="userSpaceOnUse">
<stop offset="0.522974" stop-color="#F8F8F8" stop-opacity="0"/>
<stop offset="1" stop-color="#F8F8F8" stop-opacity="0.1"/>
</linearGradient>
<linearGradient id="paint15_linear_2980_4599" x1="340" y1="408" x2="340" y2="280" gradientUnits="userSpaceOnUse">
<stop offset="0.522974" stop-color="#F8F8F8" stop-opacity="0"/>
<stop offset="1" stop-color="#F8F8F8" stop-opacity="0.1"/>
</linearGradient>
<linearGradient id="paint16_linear_2980_4599" x1="67" y1="0" x2="67" y2="128" gradientUnits="userSpaceOnUse">
<stop offset="0.522974" stop-color="#F8F8F8" stop-opacity="0"/>
<stop offset="1" stop-color="#F8F8F8" stop-opacity="0.1"/>
</linearGradient>
<linearGradient id="paint17_linear_2980_4599" x1="203" y1="0" x2="203" y2="128" gradientUnits="userSpaceOnUse">
<stop offset="0.522974" stop-color="#F8F8F8" stop-opacity="0"/>
<stop offset="1" stop-color="#F8F8F8" stop-opacity="0.1"/>
</linearGradient>
<linearGradient id="paint18_linear_2980_4599" x1="203" y1="0" x2="203" y2="128" gradientUnits="userSpaceOnUse">
<stop offset="0.522974" stop-color="#F8F8F8" stop-opacity="0"/>
<stop offset="1" stop-color="#F8F8F8" stop-opacity="0.1"/>
</linearGradient>
<linearGradient id="paint19_linear_2980_4599" x1="339" y1="0" x2="339" y2="128" gradientUnits="userSpaceOnUse">
<stop offset="0.522974" stop-color="#F8F8F8" stop-opacity="0"/>
<stop offset="1" stop-color="#F8F8F8" stop-opacity="0.1"/>
</linearGradient>
<linearGradient id="paint20_linear_2980_4599" x1="204" y1="103" x2="207.48" y2="111.785" gradientUnits="userSpaceOnUse">
<stop stop-color="white" stop-opacity="0.4"/>
<stop offset="0.4" stop-color="white" stop-opacity="0.01"/>
<stop offset="0.6" stop-color="white" stop-opacity="0.01"/>
<stop offset="1" stop-color="white" stop-opacity="0.1"/>
</linearGradient>
<linearGradient id="paint21_linear_2980_4599" x1="204" y1="296" x2="207.48" y2="304.785" gradientUnits="userSpaceOnUse">
<stop stop-color="white" stop-opacity="0.4"/>
<stop offset="0.4" stop-color="white" stop-opacity="0.01"/>
<stop offset="0.6" stop-color="white" stop-opacity="0.01"/>
<stop offset="1" stop-color="white" stop-opacity="0.1"/>
</linearGradient>
<linearGradient id="paint22_linear_2980_4599" x1="204" y1="29" x2="204" y2="381" gradientUnits="userSpaceOnUse">
<stop stop-color="#D9D9D9" stop-opacity="0"/>
<stop offset="0.155034" stop-color="#B9B9B9" stop-opacity="0.313109"/>
<stop offset="0.495145" stop-color="#737373"/>
<stop offset="0.815034" stop-color="#737373" stop-opacity="0.366374"/>
<stop offset="1" stop-color="#737373" stop-opacity="0"/>
</linearGradient>
<linearGradient id="paint23_linear_2980_4599" x1="nan" y1="nan" x2="nan" y2="nan" gradientUnits="userSpaceOnUse">
<stop stop-color="#F8F8F8" stop-opacity="0.8"/>
<stop offset="0.45221" stop-color="#F8F8F8" stop-opacity="0.2"/>
<stop offset="1" stop-color="#F8F8F8" stop-opacity="0.8"/>
</linearGradient>
<linearGradient id="paint24_linear_2980_4599" x1="nan" y1="nan" x2="nan" y2="nan" gradientUnits="userSpaceOnUse">
<stop stop-color="#F8F8F8" stop-opacity="0.8"/>
<stop offset="0.45221" stop-color="#F8F8F8" stop-opacity="0.2"/>
<stop offset="1" stop-color="#F8F8F8" stop-opacity="0.8"/>
</linearGradient>
<linearGradient id="paint25_linear_2980_4599" x1="nan" y1="nan" x2="nan" y2="nan" gradientUnits="userSpaceOnUse">
<stop stop-color="#F8F8F8" stop-opacity="0.8"/>
<stop offset="0.45221" stop-color="#F8F8F8" stop-opacity="0.2"/>
<stop offset="1" stop-color="#F8F8F8" stop-opacity="0.8"/>
</linearGradient>
<linearGradient id="paint26_linear_2980_4599" x1="nan" y1="nan" x2="nan" y2="nan" gradientUnits="userSpaceOnUse">
<stop stop-color="#F8F8F8" stop-opacity="0.8"/>
<stop offset="0.45221" stop-color="#F8F8F8" stop-opacity="0.2"/>
<stop offset="1" stop-color="#F8F8F8" stop-opacity="0.8"/>
</linearGradient>
<linearGradient id="paint27_linear_2980_4599" x1="nan" y1="nan" x2="nan" y2="nan" gradientUnits="userSpaceOnUse">
<stop stop-color="#F8F8F8" stop-opacity="0.8"/>
<stop offset="0.45221" stop-color="#F8F8F8" stop-opacity="0.2"/>
<stop offset="1" stop-color="#F8F8F8" stop-opacity="0.8"/>
</linearGradient>
<linearGradient id="paint28_linear_2980_4599" x1="nan" y1="nan" x2="nan" y2="nan" gradientUnits="userSpaceOnUse">
<stop stop-color="#F8F8F8" stop-opacity="0.8"/>
<stop offset="0.45221" stop-color="#F8F8F8" stop-opacity="0.2"/>
<stop offset="1" stop-color="#F8F8F8" stop-opacity="0.8"/>
</linearGradient>
<clipPath id="clip0_2980_4599">
<rect width="408" height="408" fill="white"/>
</clipPath>
</defs>
</svg>
